<svg width="445" height="127" viewBox="0 0 445 127" fill="none" xmlns="http://www.w3.org/2000/svg">
<line y1="1.57129" x2="445" y2="1.57129" stroke="#133079" stroke-width="2"/>
<path d="M2.19727 53.0967H10.7812C12.4805 53.0967 13.7451 53.1699 14.5752 53.3164C15.415 53.4531 16.1621 53.7461 16.8164 54.1953C17.4805 54.6445 18.0322 55.2451 18.4717 55.9971C18.9111 56.7393 19.1309 57.5742 19.1309 58.502C19.1309 59.5078 18.8574 60.4307 18.3105 61.2705C17.7734 62.1104 17.041 62.7402 16.1133 63.1602C17.4219 63.541 18.4277 64.1904 19.1309 65.1084C19.834 66.0264 20.1855 67.1055 20.1855 68.3457C20.1855 69.3223 19.9561 70.2744 19.4971 71.2021C19.0479 72.1201 18.4277 72.8574 17.6367 73.4141C16.8555 73.9609 15.8887 74.2979 14.7363 74.4248C14.0137 74.5029 12.2705 74.5518 9.50684 74.5713H2.19727V53.0967ZM6.5332 56.6709V61.6367H9.375C11.0645 61.6367 12.1143 61.6123 12.5244 61.5635C13.2666 61.4756 13.8477 61.2217 14.2676 60.8018C14.6973 60.3721 14.9121 59.8105 14.9121 59.1172C14.9121 58.4531 14.7266 57.916 14.3555 57.5059C13.9941 57.0859 13.4521 56.832 12.7295 56.7441C12.2998 56.6953 11.0645 56.6709 9.02344 56.6709H6.5332ZM6.5332 65.2109V70.9531H10.5469C12.1094 70.9531 13.1006 70.9092 13.5205 70.8213C14.165 70.7041 14.6875 70.4209 15.0879 69.9717C15.498 69.5127 15.7031 68.9023 15.7031 68.1406C15.7031 67.4961 15.5469 66.9492 15.2344 66.5C14.9219 66.0508 14.4678 65.7236 13.8721 65.5186C13.2861 65.3135 12.0068 65.2109 10.0342 65.2109H6.5332ZM26.9092 63.7607L23.1738 63.0869C23.5938 61.583 24.3164 60.4697 25.3418 59.7471C26.3672 59.0244 27.8906 58.6631 29.9121 58.6631C31.748 58.6631 33.1152 58.8828 34.0137 59.3223C34.9121 59.752 35.542 60.3037 35.9033 60.9775C36.2744 61.6416 36.46 62.8672 36.46 64.6543L36.416 69.459C36.416 70.8262 36.4795 71.8369 36.6064 72.4912C36.7432 73.1357 36.9922 73.8291 37.3535 74.5713H33.2812C33.1738 74.2979 33.042 73.8926 32.8857 73.3555C32.8174 73.1113 32.7686 72.9502 32.7393 72.8721C32.0361 73.5557 31.2842 74.0684 30.4834 74.4102C29.6826 74.752 28.8281 74.9229 27.9199 74.9229C26.3184 74.9229 25.0537 74.4883 24.126 73.6191C23.208 72.75 22.749 71.6514 22.749 70.3232C22.749 69.4443 22.959 68.6631 23.3789 67.9795C23.7988 67.2861 24.3848 66.7588 25.1367 66.3975C25.8984 66.0264 26.9922 65.7041 28.418 65.4307C30.3418 65.0693 31.6748 64.7324 32.417 64.4199V64.0098C32.417 63.2188 32.2217 62.6572 31.8311 62.3252C31.4404 61.9834 30.7031 61.8125 29.6191 61.8125C28.8867 61.8125 28.3154 61.959 27.9053 62.252C27.4951 62.5352 27.1631 63.0381 26.9092 63.7607ZM32.417 67.1006C31.8896 67.2764 31.0547 67.4863 29.9121 67.7305C28.7695 67.9746 28.0225 68.2139 27.6709 68.4482C27.1338 68.8291 26.8652 69.3125 26.8652 69.8984C26.8652 70.4746 27.0801 70.9727 27.5098 71.3926C27.9395 71.8125 28.4863 72.0225 29.1504 72.0225C29.8926 72.0225 30.6006 71.7783 31.2744 71.29C31.7725 70.9189 32.0996 70.4648 32.2559 69.9277C32.3633 69.5762 32.417 68.9072 32.417 67.9209V67.1006ZM44.4727 74.5713H40.3564V59.0146H44.1797V61.2266C44.834 60.1816 45.4199 59.4932 45.9375 59.1611C46.4648 58.8291 47.0605 58.6631 47.7246 58.6631C48.6621 58.6631 49.5654 58.9219 50.4346 59.4395L49.1602 63.0283C48.4668 62.5791 47.8223 62.3545 47.2266 62.3545C46.6504 62.3545 46.1621 62.5156 45.7617 62.8379C45.3613 63.1504 45.0439 63.7217 44.8096 64.5518C44.585 65.3818 44.4727 67.1201 44.4727 69.7666V74.5713ZM52.0459 74.5713V53.0967H56.1621V60.8311C57.4316 59.3857 58.9355 58.6631 60.6738 58.6631C62.5684 58.6631 64.1357 59.3516 65.376 60.7285C66.6162 62.0957 67.2363 64.0635 67.2363 66.6318C67.2363 69.2881 66.6016 71.334 65.332 72.7695C64.0723 74.2051 62.5391 74.9229 60.7324 74.9229C59.8438 74.9229 58.9648 74.7031 58.0957 74.2637C57.2363 73.8145 56.4941 73.1553 55.8691 72.2861V74.5713H52.0459ZM56.1328 66.4561C56.1328 68.0674 56.3867 69.2588 56.8945 70.0303C57.6074 71.124 58.5547 71.6709 59.7363 71.6709C60.6445 71.6709 61.416 71.2852 62.0508 70.5137C62.6953 69.7324 63.0176 68.5068 63.0176 66.8369C63.0176 65.0596 62.6953 63.7803 62.0508 62.999C61.4062 62.208 60.5811 61.8125 59.5752 61.8125C58.5889 61.8125 57.7686 62.1982 57.1143 62.9697C56.46 63.7314 56.1328 64.8936 56.1328 66.4561ZM73.6377 63.7607L69.9023 63.0869C70.3223 61.583 71.0449 60.4697 72.0703 59.7471C73.0957 59.0244 74.6191 58.6631 76.6406 58.6631C78.4766 58.6631 79.8438 58.8828 80.7422 59.3223C81.6406 59.752 82.2705 60.3037 82.6318 60.9775C83.0029 61.6416 83.1885 62.8672 83.1885 64.6543L83.1445 69.459C83.1445 70.8262 83.208 71.8369 83.335 72.4912C83.4717 73.1357 83.7207 73.8291 84.082 74.5713H80.0098C79.9023 74.2979 79.7705 73.8926 79.6143 73.3555C79.5459 73.1113 79.4971 72.9502 79.4678 72.8721C78.7646 73.5557 78.0127 74.0684 77.2119 74.4102C76.4111 74.752 75.5566 74.9229 74.6484 74.9229C73.0469 74.9229 71.7822 74.4883 70.8545 73.6191C69.9365 72.75 69.4775 71.6514 69.4775 70.3232C69.4775 69.4443 69.6875 68.6631 70.1074 67.9795C70.5273 67.2861 71.1133 66.7588 71.8652 66.3975C72.627 66.0264 73.7207 65.7041 75.1465 65.4307C77.0703 65.0693 78.4033 64.7324 79.1455 64.4199V64.0098C79.1455 63.2188 78.9502 62.6572 78.5596 62.3252C78.1689 61.9834 77.4316 61.8125 76.3477 61.8125C75.6152 61.8125 75.0439 61.959 74.6338 62.252C74.2236 62.5352 73.8916 63.0381 73.6377 63.7607ZM79.1455 67.1006C78.6182 67.2764 77.7832 67.4863 76.6406 67.7305C75.498 67.9746 74.751 68.2139 74.3994 68.4482C73.8623 68.8291 73.5938 69.3125 73.5938 69.8984C73.5938 70.4746 73.8086 70.9727 74.2383 71.3926C74.668 71.8125 75.2148 72.0225 75.8789 72.0225C76.6211 72.0225 77.3291 71.7783 78.0029 71.29C78.501 70.9189 78.8281 70.4648 78.9844 69.9277C79.0918 69.5762 79.1455 68.9072 79.1455 67.9209V67.1006ZM91.2012 74.5713H87.085V59.0146H90.9082V61.2266C91.5625 60.1816 92.1484 59.4932 92.666 59.1611C93.1934 58.8291 93.7891 58.6631 94.4531 58.6631C95.3906 58.6631 96.2939 58.9219 97.1631 59.4395L95.8887 63.0283C95.1953 62.5791 94.5508 62.3545 93.9551 62.3545C93.3789 62.3545 92.8906 62.5156 92.4902 62.8379C92.0898 63.1504 91.7725 63.7217 91.5381 64.5518C91.3135 65.3818 91.2012 67.1201 91.2012 69.7666V74.5713ZM102.026 63.7607L98.291 63.0869C98.7109 61.583 99.4336 60.4697 100.459 59.7471C101.484 59.0244 103.008 58.6631 105.029 58.6631C106.865 58.6631 108.232 58.8828 109.131 59.3223C110.029 59.752 110.659 60.3037 111.021 60.9775C111.392 61.6416 111.577 62.8672 111.577 64.6543L111.533 69.459C111.533 70.8262 111.597 71.8369 111.724 72.4912C111.86 73.1357 112.109 73.8291 112.471 74.5713H108.398C108.291 74.2979 108.159 73.8926 108.003 73.3555C107.935 73.1113 107.886 72.9502 107.856 72.8721C107.153 73.5557 106.401 74.0684 105.601 74.4102C104.8 74.752 103.945 74.9229 103.037 74.9229C101.436 74.9229 100.171 74.4883 99.2432 73.6191C98.3252 72.75 97.8662 71.6514 97.8662 70.3232C97.8662 69.4443 98.0762 68.6631 98.4961 67.9795C98.916 67.2861 99.502 66.7588 100.254 66.3975C101.016 66.0264 102.109 65.7041 103.535 65.4307C105.459 65.0693 106.792 64.7324 107.534 64.4199V64.0098C107.534 63.2188 107.339 62.6572 106.948 62.3252C106.558 61.9834 105.82 61.8125 104.736 61.8125C104.004 61.8125 103.433 61.959 103.022 62.252C102.612 62.5352 102.28 63.0381 102.026 63.7607ZM107.534 67.1006C107.007 67.2764 106.172 67.4863 105.029 67.7305C103.887 67.9746 103.14 68.2139 102.788 68.4482C102.251 68.8291 101.982 69.3125 101.982 69.8984C101.982 70.4746 102.197 70.9727 102.627 71.3926C103.057 71.8125 103.604 72.0225 104.268 72.0225C105.01 72.0225 105.718 71.7783 106.392 71.29C106.89 70.9189 107.217 70.4648 107.373 69.9277C107.48 69.5762 107.534 68.9072 107.534 67.9209V67.1006ZM134.019 66.6758V63.0576H143.364V71.6123C142.456 72.4912 141.138 73.2676 139.409 73.9414C137.69 74.6055 135.947 74.9375 134.18 74.9375C131.934 74.9375 129.976 74.4688 128.306 73.5312C126.636 72.584 125.381 71.2363 124.541 69.4883C123.701 67.7305 123.281 65.8213 123.281 63.7607C123.281 61.5244 123.75 59.5371 124.688 57.7988C125.625 56.0605 126.997 54.7275 128.804 53.7998C130.181 53.0869 131.895 52.7305 133.945 52.7305C136.611 52.7305 138.691 53.292 140.186 54.415C141.689 55.5283 142.656 57.0713 143.086 59.0439L138.779 59.8496C138.477 58.7949 137.905 57.9648 137.065 57.3594C136.235 56.7441 135.195 56.4365 133.945 56.4365C132.051 56.4365 130.542 57.0371 129.419 58.2383C128.306 59.4395 127.749 61.2217 127.749 63.585C127.749 66.1338 128.315 68.0479 129.448 69.3271C130.581 70.5967 132.065 71.2314 133.901 71.2314C134.81 71.2314 135.718 71.0557 136.626 70.7041C137.544 70.3428 138.33 69.9082 138.984 69.4004V66.6758H134.019ZM151.289 74.5713H147.173V59.0146H150.996V61.2266C151.65 60.1816 152.236 59.4932 152.754 59.1611C153.281 58.8291 153.877 58.6631 154.541 58.6631C155.479 58.6631 156.382 58.9219 157.251 59.4395L155.977 63.0283C155.283 62.5791 154.639 62.3545 154.043 62.3545C153.467 62.3545 152.979 62.5156 152.578 62.8379C152.178 63.1504 151.86 63.7217 151.626 64.5518C151.401 65.3818 151.289 67.1201 151.289 69.7666V74.5713ZM168.047 69.6201L172.148 70.3086C171.621 71.8125 170.786 72.96 169.644 73.751C168.511 74.5322 167.09 74.9229 165.381 74.9229C162.676 74.9229 160.674 74.0391 159.375 72.2715C158.35 70.8555 157.837 69.0684 157.837 66.9102C157.837 64.332 158.511 62.3154 159.858 60.8604C161.206 59.3955 162.91 58.6631 164.971 58.6631C167.285 58.6631 169.111 59.4297 170.449 60.9629C171.787 62.4863 172.427 64.8252 172.368 67.9795H162.056C162.085 69.2002 162.417 70.1523 163.052 70.8359C163.687 71.5098 164.478 71.8467 165.425 71.8467C166.069 71.8467 166.611 71.6709 167.051 71.3193C167.49 70.9678 167.822 70.4014 168.047 69.6201ZM168.281 65.46C168.252 64.2686 167.944 63.3652 167.358 62.75C166.772 62.125 166.06 61.8125 165.22 61.8125C164.321 61.8125 163.579 62.1396 162.993 62.7939C162.407 63.4482 162.119 64.3369 162.129 65.46H168.281ZM167.915 74.5713C167.729 74.708 167.559 74.8643 167.402 75.04C167.256 75.2256 167.129 75.4209 167.021 75.626C166.914 75.8311 166.831 76.0361 166.772 76.2412C166.714 76.4561 166.685 76.6611 166.685 76.8564C166.685 77.1787 166.768 77.4473 166.934 77.6621C167.109 77.8867 167.397 77.999 167.798 77.999C167.974 77.999 168.169 77.9648 168.384 77.8965C168.608 77.8379 168.818 77.7793 169.014 77.7207V80.167C168.193 80.5576 167.456 80.7529 166.802 80.7529C166.255 80.7529 165.781 80.6797 165.381 80.5332C164.98 80.3867 164.644 80.1865 164.37 79.9326C164.106 79.6787 163.906 79.3809 163.77 79.0391C163.643 78.707 163.579 78.3506 163.579 77.9697C163.579 77.4033 163.75 76.8125 164.092 76.1973C164.434 75.582 164.893 75.04 165.469 74.5713H167.915ZM175.562 74.5713V53.0967H179.678V60.8311C180.947 59.3857 182.451 58.6631 184.189 58.6631C186.084 58.6631 187.651 59.3516 188.892 60.7285C190.132 62.0957 190.752 64.0635 190.752 66.6318C190.752 69.2881 190.117 71.334 188.848 72.7695C187.588 74.2051 186.055 74.9229 184.248 74.9229C183.359 74.9229 182.48 74.7031 181.611 74.2637C180.752 73.8145 180.01 73.1553 179.385 72.2861V74.5713H175.562ZM179.648 66.4561C179.648 68.0674 179.902 69.2588 180.41 70.0303C181.123 71.124 182.07 71.6709 183.252 71.6709C184.16 71.6709 184.932 71.2852 185.566 70.5137C186.211 69.7324 186.533 68.5068 186.533 66.8369C186.533 65.0596 186.211 63.7803 185.566 62.999C184.922 62.208 184.097 61.8125 183.091 61.8125C182.104 61.8125 181.284 62.1982 180.63 62.9697C179.976 63.7314 179.648 64.8936 179.648 66.4561ZM192.627 70.1328L196.758 69.5029C196.934 70.3037 197.29 70.9141 197.827 71.334C198.364 71.7441 199.116 71.9492 200.083 71.9492C201.147 71.9492 201.948 71.7539 202.485 71.3633C202.847 71.0898 203.027 70.7236 203.027 70.2646C203.027 69.9521 202.93 69.6934 202.734 69.4883C202.529 69.293 202.07 69.1123 201.357 68.9463C198.037 68.2139 195.933 67.5449 195.044 66.9395C193.813 66.0996 193.198 64.9326 193.198 63.4385C193.198 62.0908 193.73 60.958 194.795 60.04C195.859 59.1221 197.51 58.6631 199.746 58.6631C201.875 58.6631 203.457 59.0098 204.492 59.7031C205.527 60.3965 206.24 61.4219 206.631 62.7793L202.749 63.4971C202.583 62.8916 202.266 62.4277 201.797 62.1055C201.338 61.7832 200.679 61.6221 199.819 61.6221C198.735 61.6221 197.959 61.7734 197.49 62.0762C197.178 62.291 197.021 62.5693 197.021 62.9111C197.021 63.2041 197.158 63.4531 197.432 63.6582C197.803 63.9316 199.082 64.3174 201.27 64.8154C203.467 65.3135 205 65.9238 205.869 66.6465C206.729 67.3789 207.158 68.3994 207.158 69.708C207.158 71.1338 206.562 72.3594 205.371 73.3848C204.18 74.4102 202.417 74.9229 200.083 74.9229C197.964 74.9229 196.284 74.4932 195.044 73.6338C193.813 72.7744 193.008 71.6074 192.627 70.1328ZM210.63 74.5713V53.0967H214.746V64.4932L219.565 59.0146H224.634L219.316 64.6982L225.015 74.5713H220.576L216.665 67.584L214.746 69.5908V74.5713H210.63ZM230.552 63.7607L226.816 63.0869C227.236 61.583 227.959 60.4697 228.984 59.7471C230.01 59.0244 231.533 58.6631 233.555 58.6631C235.391 58.6631 236.758 58.8828 237.656 59.3223C238.555 59.752 239.185 60.3037 239.546 60.9775C239.917 61.6416 240.103 62.8672 240.103 64.6543L240.059 69.459C240.059 70.8262 240.122 71.8369 240.249 72.4912C240.386 73.1357 240.635 73.8291 240.996 74.5713H236.924C236.816 74.2979 236.685 73.8926 236.528 73.3555C236.46 73.1113 236.411 72.9502 236.382 72.8721C235.679 73.5557 234.927 74.0684 234.126 74.4102C233.325 74.752 232.471 74.9229 231.562 74.9229C229.961 74.9229 228.696 74.4883 227.769 73.6191C226.851 72.75 226.392 71.6514 226.392 70.3232C226.392 69.4443 226.602 68.6631 227.021 67.9795C227.441 67.2861 228.027 66.7588 228.779 66.3975C229.541 66.0264 230.635 65.7041 232.061 65.4307C233.984 65.0693 235.317 64.7324 236.06 64.4199V64.0098C236.06 63.2188 235.864 62.6572 235.474 62.3252C235.083 61.9834 234.346 61.8125 233.262 61.8125C232.529 61.8125 231.958 61.959 231.548 62.252C231.138 62.5352 230.806 63.0381 230.552 63.7607ZM236.06 67.1006C235.532 67.2764 234.697 67.4863 233.555 67.7305C232.412 67.9746 231.665 68.2139 231.313 68.4482C230.776 68.8291 230.508 69.3125 230.508 69.8984C230.508 70.4746 230.723 70.9727 231.152 71.3926C231.582 71.8125 232.129 72.0225 232.793 72.0225C233.535 72.0225 234.243 71.7783 234.917 71.29C235.415 70.9189 235.742 70.4648 235.898 69.9277C236.006 69.5762 236.06 68.9072 236.06 67.9209V67.1006Z" fill="#133079"/>
<g clip-path="url(#clip0_202_958)">
<path d="M379 50.5713L427 47.0713L428 76.5713C428 76.5713 428.082 87.3603 429.5 94.0713C430.688 99.69 434 108.071 434 108.071H376L378 94.0713L379 79.0713V50.5713Z" fill="#0F8CC6"/>
<path d="M369.391 123.919C369.391 123.919 366.953 102.547 387.954 100.163H396.94V96.0229C396.94 96.0229 403.262 98.7381 409.663 96.3259L409.865 100.163H420.365C420.365 100.163 438.652 101.988 437.546 123.919H369.391Z" fill="white"/>
<path d="M369.07 124.531H370.376L370.453 123.219L370.679 119.356C371.292 108.891 379.548 100.904 388.996 100.904H395.861V99.7935H388.401C378.598 99.7935 370.032 108.091 369.396 118.963L369.07 124.531Z" fill="#133079"/>
<path d="M437.403 119.356L437.528 123.219L437.706 124.531H438.952L438.626 118.963C437.99 108.091 429.424 99.7935 419.621 99.7935H409.896V100.904H419.086C428.533 100.904 436.789 108.891 437.403 119.356Z" fill="#133079"/>
<path d="M409.5 100.071V95.5713H396.5V100.071" stroke="#133079"/>
<path d="M403 110.571L403 123.571" stroke="#133079"/>
<path d="M410 98.5713L409.5 100.857C409.5 100.857 409.105 103.079 408.5 104.449C407.41 106.914 403 110.653 403 110.653L411.5 114.571L416 99.5713L410 98.5713Z" fill="#80B8E0"/>
<path d="M396 98.5713L396.5 100.857C396.5 100.857 396.895 103.079 397.5 104.449C398.59 106.914 403 110.653 403 110.653L395.5 114.571L390 99.5713L396 98.5713Z" fill="#80B8E0"/>
<path d="M403.5 33.0713C416.494 33.0713 426.828 44.7814 426.492 58.9526L426.129 74.2621C425.972 80.8524 421.949 86.8064 417.083 91.1381C414.657 93.2985 412.039 95.0381 409.628 96.2354C407.204 97.4388 405.036 98.0713 403.5 98.0713C401.809 98.0713 399.564 97.4354 397.117 96.2344C394.68 95.038 392.083 93.2997 389.694 91.1407C384.908 86.8133 381.028 80.8587 380.871 74.2621L380.508 58.9526C380.172 44.7814 390.506 33.0713 403.5 33.0713Z" fill="white" stroke="#133079"/>
<path d="M400.809 89.0908H405.656C405.879 89.0908 406.06 89.2716 406.06 89.4947C406.06 89.7178 405.879 89.8986 405.656 89.8986H400.809C400.586 89.8986 400.405 89.7178 400.405 89.4947C400.405 89.2716 400.586 89.0908 400.809 89.0908Z" fill="#133079"/>
<path d="M396.568 84.2582L397.13 83.471C398.938 84.5052 401.086 85.1047 403.391 85.1047C405.721 85.1047 407.891 84.4915 409.712 83.436L410.301 84.2492C408.32 85.3957 405.96 86.0615 403.427 86.0615C400.899 86.0615 398.545 85.3992 396.568 84.2582Z" fill="#133079"/>
<path d="M403 77.4483C403.492 77.4483 405.094 77.9921 406.444 76.7928C407.92 75.4818 406.116 73.5377 404.968 71.5713V66.5713" stroke="#133079"/>
<path d="M379.118 47.9312C378.619 55.2071 379.17 60.7071 380.5 62.0713C380.001 60.2523 384.602 51.5691 390.584 50.6597C396.567 49.7502 414.016 50.2049 418.005 43.8386C422 47.0713 426.646 58.1913 426.979 61.0713C427.555 59.3439 426.843 51.2623 426.979 48.8407C427.116 46.3749 426.59 43.6975 425.483 41.1101C421.334 31.4159 412.521 28.8321 399.06 29.7416C388.291 30.4692 383.106 37.9269 383.106 37.9269C383.106 37.9269 379.416 43.5742 379.118 47.9312Z" fill="url(#paint0_linear_202_958)"/>
<circle cx="391" cy="62.5713" r="2" fill="#133079"/>
<circle cx="416" cy="62.5713" r="2" fill="#133079"/>
</g>
<line y1="125.571" x2="445" y2="125.571" stroke="#133079" stroke-width="2"/>
<defs>
<linearGradient id="paint0_linear_202_958" x1="427.207" y1="62.0713" x2="378.936" y2="62.0713" gradientUnits="userSpaceOnUse">
<stop stop-color="#133079"/>
<stop offset="1" stop-color="#0DA7DC"/>
</linearGradient>
<clipPath id="clip0_202_958">
<rect width="70.9254" height="99" fill="white" transform="translate(368.537 25.5713)"/>
</clipPath>
</defs>
</svg>
