<svg width="1359" height="1171" viewBox="0 0 1359 1171" fill="none" xmlns="http://www.w3.org/2000/svg">
<path d="M958.888 910.086C955.601 996.712 950.802 1082.86 944.498 1168.67C942.356 1169.3 940.357 1170.07 938.221 1170.84C799.08 1103.82 655.785 1044.16 508.902 992.389C343.842 934.086 174.199 885.741 0.820021 848.131C43.4848 750.578 83.9319 651.901 122.161 552.101C161.614 449.265 198.709 345.176 233.456 240.104C433.179 -364.189 553.579 -1003.4 582.883 -1664.54C733.047 -1225.09 841.515 -765.672 903.487 -290.675C853.474 -47.0836 790.796 192.043 716.241 426.127C683.206 530.04 647.823 632.97 610.088 734.782C729.376 787.889 845.788 846.544 959.023 910.08L958.888 910.086Z" fill="#133079" fill-opacity="0.02"/>
<path d="M1211 710.3C1244.19 731.631 1276.99 753.386 1309.54 775.694C1307.45 867.961 1303.72 959.893 1298.2 1051.22C1295.38 1052.02 1292.71 1052.95 1289.91 1053.89C1225.84 1011.4 1160.5 970.586 1094.01 931.587C1069.66 917.192 1045.06 903.078 1020.33 889.242C907.091 825.705 790.68 767.051 671.391 713.943C709.127 612.131 744.509 509.201 777.544 405.288C852.099 171.204 914.777 -67.9223 964.791 -311.514C1021.99 -589.441 1062.94 -873.035 1086.48 -1161.29C1183.37 -784.462 1250.43 -395.22 1284.57 3.99189C1260.36 111.452 1233.54 217.942 1204.24 323.454C1174.11 431.85 1141.48 538.998 1106.24 645.175C1141.46 666.419 1176.42 688.08 1211 710.3Z" fill="#106FAE" fill-opacity="0.02"/>
<path d="M1613.21 295.663C1622.55 510.786 1621.91 723.903 1611.55 934.867C1608.73 935.531 1605.79 936.337 1602.85 937.278C1526.47 876.614 1448.04 818.614 1367.44 763.556C1334.88 741.248 1302.08 719.493 1268.9 698.161C1234.31 675.941 1199.35 654.28 1164.13 633.037C1199.37 526.86 1232 419.712 1262.13 311.316C1291.43 205.803 1318.26 99.3138 1342.46 -8.1464C1402.33 -271.415 1446.65 -540.107 1474.76 -813.518C1549.75 -453.9 1596.75 -83.306 1613.21 295.663Z" fill="#13A7DD" fill-opacity="0.02"/>
</svg>
