<svg width="1900" height="81" viewBox="0 0 1900 81" fill="none" xmlns="http://www.w3.org/2000/svg">
<path d="M35.2734 36.5127L40.957 37.9482C39.7656 42.6162 37.6172 46.1807 34.5117 48.6416C31.4258 51.083 27.6465 52.3037 23.1738 52.3037C18.5449 52.3037 14.7754 51.3662 11.8652 49.4912C8.97461 47.5967 6.76758 44.8623 5.24414 41.2881C3.74023 37.7139 2.98828 33.876 2.98828 29.7744C2.98828 25.3018 3.83789 21.4053 5.53711 18.085C7.25586 14.7451 9.6875 12.2158 12.832 10.4971C15.9961 8.75879 19.4727 7.88965 23.2617 7.88965C27.5586 7.88965 31.1719 8.9834 34.1016 11.1709C37.0312 13.3584 39.0723 16.4346 40.2246 20.3994L34.6289 21.7178C33.6328 18.5928 32.1875 16.3174 30.293 14.8916C28.3984 13.4658 26.0156 12.7529 23.1445 12.7529C19.8438 12.7529 17.0801 13.5439 14.8535 15.126C12.6465 16.708 11.0938 18.8369 10.1953 21.5127C9.29688 24.1689 8.84766 26.9131 8.84766 29.7451C8.84766 33.3975 9.375 36.5908 10.4297 39.3252C11.5039 42.04 13.1641 44.0713 15.4102 45.4189C17.6562 46.7666 20.0879 47.4404 22.7051 47.4404C25.8887 47.4404 28.584 46.5225 30.791 44.6865C32.998 42.8506 34.4922 40.126 35.2734 36.5127ZM45.3516 36.0146C45.3516 30.2529 46.9531 25.9854 50.1562 23.2119C52.832 20.9072 56.0938 19.7549 59.9414 19.7549C64.2188 19.7549 67.7148 21.1611 70.4297 23.9736C73.1445 26.7666 74.502 30.6338 74.502 35.5752C74.502 39.5791 73.8965 42.7334 72.6855 45.0381C71.4941 47.3232 69.7461 49.1006 67.4414 50.3701C65.1562 51.6396 62.6562 52.2744 59.9414 52.2744C55.5859 52.2744 52.0605 50.8779 49.3652 48.085C46.6895 45.292 45.3516 41.2686 45.3516 36.0146ZM50.7715 36.0146C50.7715 39.999 51.6406 42.9873 53.3789 44.9795C55.1172 46.9521 57.3047 47.9385 59.9414 47.9385C62.5586 47.9385 64.7363 46.9424 66.4746 44.9502C68.2129 42.958 69.082 39.9209 69.082 35.8389C69.082 31.9912 68.2031 29.0811 66.4453 27.1084C64.707 25.1162 62.5391 24.1201 59.9414 24.1201C57.3047 24.1201 55.1172 25.1064 53.3789 27.0791C51.6406 29.0518 50.7715 32.0303 50.7715 36.0146ZM97.3535 51.5713V20.458H102.1V25.1748C103.311 22.9678 104.424 21.5127 105.439 20.8096C106.475 20.1064 107.607 19.7549 108.838 19.7549C110.615 19.7549 112.422 20.3213 114.258 21.4541L112.441 26.3467C111.152 25.585 109.863 25.2041 108.574 25.2041C107.422 25.2041 106.387 25.5557 105.469 26.2588C104.551 26.9424 103.896 27.8994 103.506 29.1299C102.92 31.0049 102.627 33.0557 102.627 35.2822V51.5713H97.3535ZM115.43 36.0146C115.43 30.2529 117.031 25.9854 120.234 23.2119C122.91 20.9072 126.172 19.7549 130.02 19.7549C134.297 19.7549 137.793 21.1611 140.508 23.9736C143.223 26.7666 144.58 30.6338 144.58 35.5752C144.58 39.5791 143.975 42.7334 142.764 45.0381C141.572 47.3232 139.824 49.1006 137.52 50.3701C135.234 51.6396 132.734 52.2744 130.02 52.2744C125.664 52.2744 122.139 50.8779 119.443 48.085C116.768 45.292 115.43 41.2686 115.43 36.0146ZM120.85 36.0146C120.85 39.999 121.719 42.9873 123.457 44.9795C125.195 46.9521 127.383 47.9385 130.02 47.9385C132.637 47.9385 134.814 46.9424 136.553 44.9502C138.291 42.958 139.16 39.9209 139.16 35.8389C139.16 31.9912 138.281 29.0811 136.523 27.1084C134.785 25.1162 132.617 24.1201 130.02 24.1201C127.383 24.1201 125.195 25.1064 123.457 27.0791C121.719 29.0518 120.85 32.0303 120.85 36.0146ZM155.654 51.5713H150.762V8.62207H156.035V23.9443C158.262 21.1514 161.104 19.7549 164.561 19.7549C166.475 19.7549 168.281 20.1455 169.98 20.9268C171.699 21.6885 173.105 22.7725 174.199 24.1787C175.312 25.5654 176.182 27.2451 176.807 29.2178C177.432 31.1904 177.744 33.2998 177.744 35.5459C177.744 40.8779 176.426 44.999 173.789 47.9092C171.152 50.8193 167.988 52.2744 164.297 52.2744C160.625 52.2744 157.744 50.7412 155.654 47.6748V51.5713ZM155.596 35.7803C155.596 39.5107 156.104 42.2061 157.119 43.8662C158.779 46.5811 161.025 47.9385 163.857 47.9385C166.162 47.9385 168.154 46.9424 169.834 44.9502C171.514 42.9385 172.354 39.9502 172.354 35.9854C172.354 31.9229 171.543 28.9248 169.922 26.9912C168.32 25.0576 166.377 24.0908 164.092 24.0908C161.787 24.0908 159.795 25.0967 158.115 27.1084C156.436 29.1006 155.596 31.9912 155.596 35.7803ZM184.219 14.6865V8.62207H189.492V14.6865H184.219ZM184.219 51.5713V20.458H189.492V51.5713H184.219ZM197.549 51.5713V20.458H202.266V24.8232C203.242 23.2998 204.541 22.0791 206.162 21.1611C207.783 20.2236 209.629 19.7549 211.699 19.7549C214.004 19.7549 215.889 20.2334 217.354 21.1904C218.838 22.1475 219.883 23.4854 220.488 25.2041C222.949 21.5713 226.152 19.7549 230.098 19.7549C233.184 19.7549 235.557 20.6143 237.217 22.333C238.877 24.0322 239.707 26.6592 239.707 30.2139V51.5713H234.463V31.9717C234.463 29.8623 234.287 28.3486 233.936 27.4307C233.604 26.4932 232.988 25.7412 232.09 25.1748C231.191 24.6084 230.137 24.3252 228.926 24.3252C226.738 24.3252 224.922 25.0576 223.477 26.5225C222.031 27.9678 221.309 30.292 221.309 33.4951V51.5713H216.035V31.3564C216.035 29.0127 215.605 27.2549 214.746 26.083C213.887 24.9111 212.48 24.3252 210.527 24.3252C209.043 24.3252 207.666 24.7158 206.396 25.4971C205.146 26.2783 204.238 27.4209 203.672 28.9248C203.105 30.4287 202.822 32.5967 202.822 35.4287V51.5713H197.549ZM247.295 63.5537L246.709 58.6025C247.861 58.915 248.867 59.0713 249.727 59.0713C250.898 59.0713 251.836 58.876 252.539 58.4854C253.242 58.0947 253.818 57.5479 254.268 56.8447C254.6 56.3174 255.137 55.0088 255.879 52.9189C255.977 52.626 256.133 52.1963 256.348 51.6299L244.541 20.458H250.225L256.699 38.4756C257.539 40.7607 258.291 43.1631 258.955 45.6826C259.561 43.2607 260.283 40.8975 261.123 38.5928L267.773 20.458H273.047L261.211 52.0986C259.941 55.5166 258.955 57.8701 258.252 59.1592C257.314 60.8975 256.24 62.167 255.029 62.9678C253.818 63.7881 252.373 64.1982 250.693 64.1982C249.678 64.1982 248.545 63.9834 247.295 63.5537Z" fill="#133079"/>
<line y1="79.5713" x2="1900" y2="79.5713" stroke="#133079" stroke-width="2"/>
</svg>
