<svg width="1900" height="81" viewBox="0 0 1900 81" fill="none" xmlns="http://www.w3.org/2000/svg">
<path d="M4.39453 51.5713V8.62207H10.0781V29.9209L31.4062 8.62207H39.1113L21.0938 26.0244L39.9023 51.5713H32.4023L17.1094 29.833L10.0781 36.6885V51.5713H4.39453ZM42.0117 36.0146C42.0117 30.2529 43.6133 25.9854 46.8164 23.2119C49.4922 20.9072 52.7539 19.7549 56.6016 19.7549C60.8789 19.7549 64.375 21.1611 67.0898 23.9736C69.8047 26.7666 71.1621 30.6338 71.1621 35.5752C71.1621 39.5791 70.5566 42.7334 69.3457 45.0381C68.1543 47.3232 66.4062 49.1006 64.1016 50.3701C61.8164 51.6396 59.3164 52.2744 56.6016 52.2744C52.2461 52.2744 48.7207 50.8779 46.0254 48.085C43.3496 45.292 42.0117 41.2686 42.0117 36.0146ZM47.4316 36.0146C47.4316 39.999 48.3008 42.9873 50.0391 44.9795C51.7773 46.9521 53.9648 47.9385 56.6016 47.9385C59.2188 47.9385 61.3965 46.9424 63.1348 44.9502C64.873 42.958 65.7422 39.9209 65.7422 35.8389C65.7422 31.9912 64.8633 29.0811 63.1055 27.1084C61.3672 25.1162 59.1992 24.1201 56.6016 24.1201C53.9648 24.1201 51.7773 25.1064 50.0391 27.0791C48.3008 29.0518 47.4316 32.0303 47.4316 36.0146ZM77.373 51.5713V20.458H82.1191V24.8818C84.4043 21.4639 87.7051 19.7549 92.0215 19.7549C93.8965 19.7549 95.6152 20.0967 97.1777 20.7803C98.7598 21.4443 99.9414 22.3232 100.723 23.417C101.504 24.5107 102.051 25.8096 102.363 27.3135C102.559 28.29 102.656 29.999 102.656 32.4404V51.5713H97.3828V32.6455C97.3828 30.4971 97.1777 28.8955 96.7676 27.8408C96.3574 26.7666 95.625 25.917 94.5703 25.292C93.5352 24.6475 92.3145 24.3252 90.9082 24.3252C88.6621 24.3252 86.7188 25.0381 85.0781 26.4639C83.457 27.8896 82.6465 30.5947 82.6465 34.5791V51.5713H77.373ZM122.285 46.8545L123.047 51.5127C121.562 51.8252 120.234 51.9814 119.062 51.9814C117.148 51.9814 115.664 51.6787 114.609 51.0732C113.555 50.4678 112.812 49.6768 112.383 48.7002C111.953 47.7041 111.738 45.624 111.738 42.46V24.5596H107.871V20.458H111.738V12.7529L116.982 9.58887V20.458H122.285V24.5596H116.982V42.7529C116.982 44.2568 117.07 45.2236 117.246 45.6533C117.441 46.083 117.744 46.4248 118.154 46.6787C118.584 46.9326 119.189 47.0596 119.971 47.0596C120.557 47.0596 121.328 46.9912 122.285 46.8545ZM147.773 47.7334C145.82 49.3936 143.936 50.5654 142.119 51.249C140.322 51.9326 138.389 52.2744 136.318 52.2744C132.9 52.2744 130.273 51.4443 128.438 49.7842C126.602 48.1045 125.684 45.9658 125.684 43.3682C125.684 41.8447 126.025 40.458 126.709 39.208C127.412 37.9385 128.32 36.9229 129.434 36.1611C130.566 35.3994 131.836 34.8232 133.242 34.4326C134.277 34.1592 135.84 33.8955 137.93 33.6416C142.188 33.1338 145.322 32.5283 147.334 31.8252C147.354 31.1025 147.363 30.6436 147.363 30.4482C147.363 28.2998 146.865 26.7861 145.869 25.9072C144.521 24.7158 142.52 24.1201 139.863 24.1201C137.383 24.1201 135.547 24.5596 134.355 25.4385C133.184 26.2979 132.314 27.8311 131.748 30.0381L126.592 29.335C127.061 27.1279 127.832 25.3506 128.906 24.0029C129.98 22.6357 131.533 21.5908 133.564 20.8682C135.596 20.126 137.949 19.7549 140.625 19.7549C143.281 19.7549 145.439 20.0674 147.1 20.6924C148.76 21.3174 149.98 22.1084 150.762 23.0654C151.543 24.0029 152.09 25.1943 152.402 26.6396C152.578 27.5381 152.666 29.1592 152.666 31.5029V38.5342C152.666 43.4365 152.773 46.542 152.988 47.8506C153.223 49.1396 153.672 50.3799 154.336 51.5713H148.828C148.281 50.4775 147.93 49.1982 147.773 47.7334ZM147.334 35.9561C145.42 36.7373 142.549 37.4014 138.721 37.9482C136.553 38.2607 135.02 38.6123 134.121 39.0029C133.223 39.3936 132.529 39.9697 132.041 40.7314C131.553 41.4736 131.309 42.3037 131.309 43.2217C131.309 44.6279 131.836 45.7998 132.891 46.7373C133.965 47.6748 135.527 48.1436 137.578 48.1436C139.609 48.1436 141.416 47.7041 142.998 46.8252C144.58 45.9268 145.742 44.7061 146.484 43.1631C147.051 41.9717 147.334 40.2139 147.334 37.8896V35.9561ZM160.898 51.5713V8.62207H166.172V33.1143L178.652 20.458H185.479L173.584 32.001L186.68 51.5713H180.176L169.893 35.6631L166.172 39.2373V51.5713H160.898ZM202.383 46.8545L203.145 51.5127C201.66 51.8252 200.332 51.9814 199.16 51.9814C197.246 51.9814 195.762 51.6787 194.707 51.0732C193.652 50.4678 192.91 49.6768 192.48 48.7002C192.051 47.7041 191.836 45.624 191.836 42.46V24.5596H187.969V20.458H191.836V12.7529L197.08 9.58887V20.458H202.383V24.5596H197.08V42.7529C197.08 44.2568 197.168 45.2236 197.344 45.6533C197.539 46.083 197.842 46.4248 198.252 46.6787C198.682 46.9326 199.287 47.0596 200.068 47.0596C200.654 47.0596 201.426 46.9912 202.383 46.8545Z" fill="#133079"/>
<line y1="79.5713" x2="1900" y2="79.5713" stroke="#133079" stroke-width="2"/>
</svg>
