<svg width="1900" height="81" viewBox="0 0 1900 81" fill="none" xmlns="http://www.w3.org/2000/svg">
<path d="M2.90039 30.6533C2.90039 23.5244 4.81445 17.9482 8.64258 13.9248C12.4707 9.88184 17.4121 7.86035 23.4668 7.86035C27.4316 7.86035 31.0059 8.80762 34.1895 10.7021C37.373 12.5967 39.7949 15.2432 41.4551 18.6416C43.1348 22.0205 43.9746 25.8584 43.9746 30.1553C43.9746 34.5107 43.0957 38.4072 41.3379 41.8447C39.5801 45.2822 37.0898 47.8896 33.8672 49.667C30.6445 51.4248 27.168 52.3037 23.4375 52.3037C19.3945 52.3037 15.7812 51.3271 12.5977 49.374C9.41406 47.4209 7.00195 44.7549 5.36133 41.376C3.7207 37.9971 2.90039 34.4229 2.90039 30.6533ZM8.75977 30.7412C8.75977 35.917 10.1465 39.999 12.9199 42.9873C15.7129 45.9561 19.209 47.4404 23.4082 47.4404C27.6855 47.4404 31.2012 45.9365 33.9551 42.9287C36.7285 39.9209 38.1152 35.6533 38.1152 30.126C38.1152 26.6299 37.5195 23.583 36.3281 20.9854C35.1562 18.3682 33.4277 16.3467 31.1426 14.9209C28.877 13.4756 26.3281 12.7529 23.4961 12.7529C19.4727 12.7529 16.0059 14.1396 13.0957 16.9131C10.2051 19.667 8.75977 24.2764 8.75977 30.7412ZM67.9688 51.5713V8.62207H73.7988L96.3574 42.3428V8.62207H101.807V51.5713H95.9766L73.418 17.8213V51.5713H67.9688ZM131.016 47.7334C129.062 49.3936 127.178 50.5654 125.361 51.249C123.564 51.9326 121.631 52.2744 119.561 52.2744C116.143 52.2744 113.516 51.4443 111.68 49.7842C109.844 48.1045 108.926 45.9658 108.926 43.3682C108.926 41.8447 109.268 40.458 109.951 39.208C110.654 37.9385 111.562 36.9229 112.676 36.1611C113.809 35.3994 115.078 34.8232 116.484 34.4326C117.52 34.1592 119.082 33.8955 121.172 33.6416C125.43 33.1338 128.564 32.5283 130.576 31.8252C130.596 31.1025 130.605 30.6436 130.605 30.4482C130.605 28.2998 130.107 26.7861 129.111 25.9072C127.764 24.7158 125.762 24.1201 123.105 24.1201C120.625 24.1201 118.789 24.5596 117.598 25.4385C116.426 26.2979 115.557 27.8311 114.99 30.0381L109.834 29.335C110.303 27.1279 111.074 25.3506 112.148 24.0029C113.223 22.6357 114.775 21.5908 116.807 20.8682C118.838 20.126 121.191 19.7549 123.867 19.7549C126.523 19.7549 128.682 20.0674 130.342 20.6924C132.002 21.3174 133.223 22.1084 134.004 23.0654C134.785 24.0029 135.332 25.1943 135.645 26.6396C135.82 27.5381 135.908 29.1592 135.908 31.5029V38.5342C135.908 43.4365 136.016 46.542 136.23 47.8506C136.465 49.1396 136.914 50.3799 137.578 51.5713H132.07C131.523 50.4775 131.172 49.1982 131.016 47.7334ZM130.576 35.9561C128.662 36.7373 125.791 37.4014 121.963 37.9482C119.795 38.2607 118.262 38.6123 117.363 39.0029C116.465 39.3936 115.771 39.9697 115.283 40.7314C114.795 41.4736 114.551 42.3037 114.551 43.2217C114.551 44.6279 115.078 45.7998 116.133 46.7373C117.207 47.6748 118.77 48.1436 120.82 48.1436C122.852 48.1436 124.658 47.7041 126.24 46.8252C127.822 45.9268 128.984 44.7061 129.727 43.1631C130.293 41.9717 130.576 40.2139 130.576 37.8896V35.9561ZM142.002 42.2842L147.217 41.4639C147.51 43.5537 148.32 45.1553 149.648 46.2686C150.996 47.3818 152.871 47.9385 155.273 47.9385C157.695 47.9385 159.492 47.4502 160.664 46.4736C161.836 45.4775 162.422 44.3154 162.422 42.9873C162.422 41.7959 161.904 40.8584 160.869 40.1748C160.146 39.7061 158.35 39.1104 155.479 38.3877C151.611 37.4111 148.926 36.5713 147.422 35.8682C145.938 35.1455 144.805 34.1592 144.023 32.9092C143.262 31.6396 142.881 30.2432 142.881 28.7197C142.881 27.333 143.193 26.0537 143.818 24.8818C144.463 23.6904 145.332 22.7041 146.426 21.9229C147.246 21.3174 148.359 20.8096 149.766 20.3994C151.191 19.9697 152.715 19.7549 154.336 19.7549C156.777 19.7549 158.916 20.1064 160.752 20.8096C162.607 21.5127 163.975 22.4697 164.854 23.6807C165.732 24.8721 166.338 26.4736 166.67 28.4854L161.514 29.1885C161.279 27.5869 160.596 26.3369 159.463 25.4385C158.35 24.54 156.768 24.0908 154.717 24.0908C152.295 24.0908 150.566 24.4912 149.531 25.292C148.496 26.0928 147.979 27.0303 147.979 28.1045C147.979 28.7881 148.193 29.4033 148.623 29.9502C149.053 30.5166 149.727 30.9854 150.645 31.3564C151.172 31.5518 152.725 32.001 155.303 32.7041C159.033 33.7002 161.631 34.5205 163.096 35.165C164.58 35.79 165.742 36.708 166.582 37.9189C167.422 39.1299 167.842 40.6338 167.842 42.4307C167.842 44.1885 167.324 45.8486 166.289 47.4111C165.273 48.9541 163.799 50.1553 161.865 51.0146C159.932 51.8545 157.744 52.2744 155.303 52.2744C151.26 52.2744 148.174 51.4346 146.045 49.7549C143.936 48.0752 142.588 45.585 142.002 42.2842Z" fill="#133079"/>
<line y1="79.5713" x2="1900" y2="79.5713" stroke="#133079" stroke-width="2"/>
</svg>
