<svg width="1415" height="125" viewBox="0 0 1415 125" fill="none" xmlns="http://www.w3.org/2000/svg">
<path d="M2.24121 72.5713V51.0967H6.57715V60.6328L15.3369 51.0967H21.167L13.0811 59.4609L21.6064 72.5713H15.9961L10.0928 62.4932L6.57715 66.082V72.5713H2.24121ZM23.833 54.9053V51.0967H27.9492V54.9053H23.833ZM23.833 72.5713V57.0146H27.9492V72.5713H23.833ZM31.875 57.0146H35.6689V59.1387C37.0264 57.4883 38.6426 56.6631 40.5176 56.6631C41.5137 56.6631 42.3779 56.8682 43.1104 57.2783C43.8428 57.6885 44.4434 58.3086 44.9121 59.1387C45.5957 58.3086 46.333 57.6885 47.124 57.2783C47.915 56.8682 48.7598 56.6631 49.6582 56.6631C50.8008 56.6631 51.7676 56.8975 52.5586 57.3662C53.3496 57.8252 53.9404 58.5039 54.3311 59.4023C54.6143 60.0664 54.7559 61.1406 54.7559 62.625V72.5713H50.6396V63.6797C50.6396 62.1367 50.498 61.1406 50.2148 60.6914C49.834 60.1055 49.248 59.8125 48.457 59.8125C47.8809 59.8125 47.3389 59.9883 46.8311 60.3398C46.3232 60.6914 45.957 61.209 45.7324 61.8926C45.5078 62.5664 45.3955 63.6357 45.3955 65.1006V72.5713H41.2793V64.0459C41.2793 62.5322 41.2061 61.5557 41.0596 61.1162C40.9131 60.6768 40.6836 60.3496 40.3711 60.1348C40.0684 59.9199 39.6533 59.8125 39.126 59.8125C38.4912 59.8125 37.9199 59.9834 37.4121 60.3252C36.9043 60.667 36.5381 61.1602 36.3135 61.8047C36.0986 62.4492 35.9912 63.5186 35.9912 65.0127V72.5713H31.875V57.0146ZM67.1338 54.9053V51.0967H71.25V54.9053H67.1338ZM71.25 57.0146V72.0879C71.25 74.0703 71.1182 75.4668 70.8545 76.2773C70.6006 77.0977 70.1025 77.7373 69.3604 78.1963C68.6279 78.6553 67.6904 78.8848 66.5479 78.8848C66.1377 78.8848 65.6934 78.8457 65.2148 78.7676C64.7461 78.6992 64.2383 78.5918 63.6914 78.4453L64.4092 74.9297C64.6045 74.9688 64.79 74.998 64.9658 75.0176C65.1318 75.0469 65.2881 75.0615 65.4346 75.0615C65.8545 75.0615 66.1963 74.9688 66.46 74.7832C66.7334 74.6074 66.9141 74.3926 67.002 74.1387C67.0898 73.8848 67.1338 73.123 67.1338 71.8535V57.0146H71.25ZM84.5801 67.6201L88.6816 68.3086C88.1543 69.8125 87.3193 70.96 86.1768 71.751C85.0439 72.5322 83.623 72.9229 81.9141 72.9229C79.209 72.9229 77.207 72.0391 75.9082 70.2715C74.8828 68.8555 74.3701 67.0684 74.3701 64.9102C74.3701 62.332 75.0439 60.3154 76.3916 58.8604C77.7393 57.3955 79.4434 56.6631 81.5039 56.6631C83.8184 56.6631 85.6445 57.4297 86.9824 58.9629C88.3203 60.4863 88.96 62.8252 88.9014 65.9795H78.5889C78.6182 67.2002 78.9502 68.1523 79.585 68.8359C80.2197 69.5098 81.0107 69.8467 81.958 69.8467C82.6025 69.8467 83.1445 69.6709 83.584 69.3193C84.0234 68.9678 84.3555 68.4014 84.5801 67.6201ZM84.8145 63.46C84.7852 62.2686 84.4775 61.3652 83.8916 60.75C83.3057 60.125 82.5928 59.8125 81.7529 59.8125C80.8545 59.8125 80.1123 60.1396 79.5264 60.7939C78.9404 61.4482 78.6523 62.3369 78.6621 63.46H84.8145ZM90.8203 68.1328L94.9512 67.5029C95.127 68.3037 95.4834 68.9141 96.0205 69.334C96.5576 69.7441 97.3096 69.9492 98.2764 69.9492C99.3408 69.9492 100.142 69.7539 100.679 69.3633C101.04 69.0898 101.221 68.7236 101.221 68.2646C101.221 67.9521 101.123 67.6934 100.928 67.4883C100.723 67.293 100.264 67.1123 99.5508 66.9463C96.2305 66.2139 94.126 65.5449 93.2373 64.9395C92.0068 64.0996 91.3916 62.9326 91.3916 61.4385C91.3916 60.0908 91.9238 58.958 92.9883 58.04C94.0527 57.1221 95.7031 56.6631 97.9395 56.6631C100.068 56.6631 101.65 57.0098 102.686 57.7031C103.721 58.3965 104.434 59.4219 104.824 60.7793L100.942 61.4971C100.776 60.8916 100.459 60.4277 99.9902 60.1055C99.5312 59.7832 98.8721 59.6221 98.0127 59.6221C96.9287 59.6221 96.1523 59.7734 95.6836 60.0762C95.3711 60.291 95.2148 60.5693 95.2148 60.9111C95.2148 61.2041 95.3516 61.4531 95.625 61.6582C95.9961 61.9316 97.2754 62.3174 99.4629 62.8154C101.66 63.3135 103.193 63.9238 104.062 64.6465C104.922 65.3789 105.352 66.3994 105.352 67.708C105.352 69.1338 104.756 70.3594 103.564 71.3848C102.373 72.4102 100.61 72.9229 98.2764 72.9229C96.1572 72.9229 94.4775 72.4932 93.2373 71.6338C92.0068 70.7744 91.2012 69.6074 90.8203 68.1328ZM116.104 57.0146V60.2959H113.291V66.5654C113.291 67.835 113.315 68.5771 113.364 68.792C113.423 68.9971 113.545 69.168 113.73 69.3047C113.926 69.4414 114.16 69.5098 114.434 69.5098C114.814 69.5098 115.366 69.3779 116.089 69.1143L116.44 72.3076C115.483 72.7178 114.399 72.9229 113.188 72.9229C112.446 72.9229 111.777 72.8008 111.182 72.5566C110.586 72.3027 110.146 71.9805 109.863 71.5898C109.59 71.1895 109.399 70.6523 109.292 69.9785C109.204 69.5 109.16 68.5332 109.16 67.0781V60.2959H107.271V57.0146H109.16V53.9238L113.291 51.5215V57.0146H116.104ZM127.969 67.6201L132.07 68.3086C131.543 69.8125 130.708 70.96 129.565 71.751C128.433 72.5322 127.012 72.9229 125.303 72.9229C122.598 72.9229 120.596 72.0391 119.297 70.2715C118.271 68.8555 117.759 67.0684 117.759 64.9102C117.759 62.332 118.433 60.3154 119.78 58.8604C121.128 57.3955 122.832 56.6631 124.893 56.6631C127.207 56.6631 129.033 57.4297 130.371 58.9629C131.709 60.4863 132.349 62.8252 132.29 65.9795H121.978C122.007 67.2002 122.339 68.1523 122.974 68.8359C123.608 69.5098 124.399 69.8467 125.347 69.8467C125.991 69.8467 126.533 69.6709 126.973 69.3193C127.412 68.9678 127.744 68.4014 127.969 67.6201ZM128.203 63.46C128.174 62.2686 127.866 61.3652 127.28 60.75C126.694 60.125 125.981 59.8125 125.142 59.8125C124.243 59.8125 123.501 60.1396 122.915 60.7939C122.329 61.4482 122.041 62.3369 122.051 63.46H128.203ZM134.209 68.1328L138.34 67.5029C138.516 68.3037 138.872 68.9141 139.409 69.334C139.946 69.7441 140.698 69.9492 141.665 69.9492C142.729 69.9492 143.53 69.7539 144.067 69.3633C144.429 69.0898 144.609 68.7236 144.609 68.2646C144.609 67.9521 144.512 67.6934 144.316 67.4883C144.111 67.293 143.652 67.1123 142.939 66.9463C139.619 66.2139 137.515 65.5449 136.626 64.9395C135.396 64.0996 134.78 62.9326 134.78 61.4385C134.78 60.0908 135.312 58.958 136.377 58.04C137.441 57.1221 139.092 56.6631 141.328 56.6631C143.457 56.6631 145.039 57.0098 146.074 57.7031C147.109 58.3965 147.822 59.4219 148.213 60.7793L144.331 61.4971C144.165 60.8916 143.848 60.4277 143.379 60.1055C142.92 59.7832 142.261 59.6221 141.401 59.6221C140.317 59.6221 139.541 59.7734 139.072 60.0762C138.76 60.291 138.604 60.5693 138.604 60.9111C138.604 61.2041 138.74 61.4531 139.014 61.6582C139.385 61.9316 140.664 62.3174 142.852 62.8154C145.049 63.3135 146.582 63.9238 147.451 64.6465C148.311 65.3789 148.74 66.3994 148.74 67.708C148.74 69.1338 148.145 70.3594 146.953 71.3848C145.762 72.4102 143.999 72.9229 141.665 72.9229C139.546 72.9229 137.866 72.4932 136.626 71.6338C135.396 70.7744 134.59 69.6074 134.209 68.1328ZM140.156 55.1104L142.178 50.7305H146.792L142.764 55.1104H140.156ZM152.051 57.0146H155.845V59.1387C157.202 57.4883 158.818 56.6631 160.693 56.6631C161.689 56.6631 162.554 56.8682 163.286 57.2783C164.019 57.6885 164.619 58.3086 165.088 59.1387C165.771 58.3086 166.509 57.6885 167.3 57.2783C168.091 56.8682 168.936 56.6631 169.834 56.6631C170.977 56.6631 171.943 56.8975 172.734 57.3662C173.525 57.8252 174.116 58.5039 174.507 59.4023C174.79 60.0664 174.932 61.1406 174.932 62.625V72.5713H170.815V63.6797C170.815 62.1367 170.674 61.1406 170.391 60.6914C170.01 60.1055 169.424 59.8125 168.633 59.8125C168.057 59.8125 167.515 59.9883 167.007 60.3398C166.499 60.6914 166.133 61.209 165.908 61.8926C165.684 62.5664 165.571 63.6357 165.571 65.1006V72.5713H161.455V64.0459C161.455 62.5322 161.382 61.5557 161.235 61.1162C161.089 60.6768 160.859 60.3496 160.547 60.1348C160.244 59.9199 159.829 59.8125 159.302 59.8125C158.667 59.8125 158.096 59.9834 157.588 60.3252C157.08 60.667 156.714 61.1602 156.489 61.8047C156.274 62.4492 156.167 63.5186 156.167 65.0127V72.5713H152.051V57.0146ZM177.1 57.0146H181.479L185.2 68.0596L188.833 57.0146H193.096L187.603 71.9854L186.621 74.6953C186.26 75.6035 185.913 76.2969 185.581 76.7754C185.259 77.2539 184.883 77.6396 184.453 77.9326C184.033 78.2354 183.511 78.4697 182.886 78.6357C182.271 78.8018 181.572 78.8848 180.791 78.8848C180 78.8848 179.224 78.8018 178.462 78.6357L178.096 75.4131C178.74 75.54 179.321 75.6035 179.839 75.6035C180.796 75.6035 181.504 75.3203 181.963 74.7539C182.422 74.1973 182.773 73.4844 183.018 72.6152L177.1 57.0146Z" fill="#133079"/>
<line y1="123.571" x2="1415" y2="123.571" stroke="#133079" stroke-width="2"/>
</svg>
