<svg width="1415" height="125" viewBox="0 0 1415 125" fill="none" xmlns="http://www.w3.org/2000/svg">
<path d="M9.93164 51.0967H14.2529V64.6904C14.2529 66.4678 14.0967 67.835 13.7842 68.792C13.3643 70.042 12.6025 71.0479 11.499 71.8096C10.3955 72.5615 8.94043 72.9375 7.13379 72.9375C5.01465 72.9375 3.38379 72.3467 2.24121 71.165C1.09863 69.9736 0.522461 68.2305 0.512695 65.9355L4.59961 65.4668C4.64844 66.6973 4.8291 67.5664 5.1416 68.0742C5.61035 68.8457 6.32324 69.2314 7.28027 69.2314C8.24707 69.2314 8.93066 68.958 9.33105 68.4111C9.73145 67.8545 9.93164 66.707 9.93164 64.9688V51.0967ZM21.9287 61.7607L18.1934 61.0869C18.6133 59.583 19.3359 58.4697 20.3613 57.7471C21.3867 57.0244 22.9102 56.6631 24.9316 56.6631C26.7676 56.6631 28.1348 56.8828 29.0332 57.3223C29.9316 57.752 30.5615 58.3037 30.9229 58.9775C31.2939 59.6416 31.4795 60.8672 31.4795 62.6543L31.4355 67.459C31.4355 68.8262 31.499 69.8369 31.626 70.4912C31.7627 71.1357 32.0117 71.8291 32.373 72.5713H28.3008C28.1934 72.2979 28.0615 71.8926 27.9053 71.3555C27.8369 71.1113 27.7881 70.9502 27.7588 70.8721C27.0557 71.5557 26.3037 72.0684 25.5029 72.4102C24.7021 72.752 23.8477 72.9229 22.9395 72.9229C21.3379 72.9229 20.0732 72.4883 19.1455 71.6191C18.2275 70.75 17.7686 69.6514 17.7686 68.3232C17.7686 67.4443 17.9785 66.6631 18.3984 65.9795C18.8184 65.2861 19.4043 64.7588 20.1562 64.3975C20.918 64.0264 22.0117 63.7041 23.4375 63.4307C25.3613 63.0693 26.6943 62.7324 27.4365 62.4199V62.0098C27.4365 61.2188 27.2412 60.6572 26.8506 60.3252C26.46 59.9834 25.7227 59.8125 24.6387 59.8125C23.9062 59.8125 23.335 59.959 22.9248 60.252C22.5146 60.5352 22.1826 61.0381 21.9287 61.7607ZM27.4365 65.1006C26.9092 65.2764 26.0742 65.4863 24.9316 65.7305C23.7891 65.9746 23.042 66.2139 22.6904 66.4482C22.1533 66.8291 21.8848 67.3125 21.8848 67.8984C21.8848 68.4746 22.0996 68.9727 22.5293 69.3926C22.959 69.8125 23.5059 70.0225 24.1699 70.0225C24.9121 70.0225 25.6201 69.7783 26.2939 69.29C26.792 68.9189 27.1191 68.4648 27.2754 67.9277C27.3828 67.5762 27.4365 66.9072 27.4365 65.9209V65.1006ZM35.4053 72.5713V51.0967H39.5215V62.4932L44.3408 57.0146H49.4092L44.0918 62.6982L49.79 72.5713H45.3516L41.4404 65.584L39.5215 67.5908V72.5713H35.4053ZM74.8682 72.5713H71.0449V70.2861C70.4102 71.1748 69.6582 71.8389 68.7891 72.2783C67.9297 72.708 67.0605 72.9229 66.1816 72.9229C64.3945 72.9229 62.8613 72.2051 61.582 70.7695C60.3125 69.3242 59.6777 67.3125 59.6777 64.7344C59.6777 62.0977 60.2979 60.0957 61.5381 58.7285C62.7783 57.3516 64.3457 56.6631 66.2402 56.6631C67.9785 56.6631 69.4824 57.3857 70.752 58.8311V51.0967H74.8682V72.5713ZM63.8818 64.4561C63.8818 66.1162 64.1113 67.3174 64.5703 68.0596C65.2344 69.1338 66.1621 69.6709 67.3535 69.6709C68.3008 69.6709 69.1064 69.2705 69.7705 68.4697C70.4346 67.6592 70.7666 66.4531 70.7666 64.8516C70.7666 63.0645 70.4443 61.7803 69.7998 60.999C69.1553 60.208 68.3301 59.8125 67.3242 59.8125C66.3477 59.8125 65.5273 60.2031 64.8633 60.9844C64.209 61.7559 63.8818 62.9131 63.8818 64.4561ZM77.2852 72.5713V69.3633L83.1152 62.6689C84.0723 61.5752 84.7803 60.7988 85.2393 60.3398C84.7607 60.3691 84.1309 60.3887 83.3496 60.3984L77.8564 60.4277V57.0146H90.7178V59.9297L84.7705 66.7852L82.6758 69.0557C83.8184 68.9873 84.5264 68.9531 84.7998 68.9531H91.1719V72.5713H77.2852ZM93.9404 54.9053V51.0967H98.0566V54.9053H93.9404ZM93.9404 72.5713V57.0146H98.0566V72.5713H93.9404ZM105.366 61.7607L101.631 61.0869C102.051 59.583 102.773 58.4697 103.799 57.7471C104.824 57.0244 106.348 56.6631 108.369 56.6631C110.205 56.6631 111.572 56.8828 112.471 57.3223C113.369 57.752 113.999 58.3037 114.36 58.9775C114.731 59.6416 114.917 60.8672 114.917 62.6543L114.873 67.459C114.873 68.8262 114.937 69.8369 115.063 70.4912C115.2 71.1357 115.449 71.8291 115.811 72.5713H111.738C111.631 72.2979 111.499 71.8926 111.343 71.3555C111.274 71.1113 111.226 70.9502 111.196 70.8721C110.493 71.5557 109.741 72.0684 108.94 72.4102C108.14 72.752 107.285 72.9229 106.377 72.9229C104.775 72.9229 103.511 72.4883 102.583 71.6191C101.665 70.75 101.206 69.6514 101.206 68.3232C101.206 67.4443 101.416 66.6631 101.836 65.9795C102.256 65.2861 102.842 64.7588 103.594 64.3975C104.355 64.0264 105.449 63.7041 106.875 63.4307C108.799 63.0693 110.132 62.7324 110.874 62.4199V62.0098C110.874 61.2188 110.679 60.6572 110.288 60.3252C109.897 59.9834 109.16 59.8125 108.076 59.8125C107.344 59.8125 106.772 59.959 106.362 60.252C105.952 60.5352 105.62 61.0381 105.366 61.7607ZM110.874 65.1006C110.347 65.2764 109.512 65.4863 108.369 65.7305C107.227 65.9746 106.479 66.2139 106.128 66.4482C105.591 66.8291 105.322 67.3125 105.322 67.8984C105.322 68.4746 105.537 68.9727 105.967 69.3926C106.396 69.8125 106.943 70.0225 107.607 70.0225C108.35 70.0225 109.058 69.7783 109.731 69.29C110.229 68.9189 110.557 68.4648 110.713 67.9277C110.82 67.5762 110.874 66.9072 110.874 65.9209V65.1006ZM118.989 62.0244V51.0967H123.105V58.5234L125.112 56.8242V59.6074L123.105 61.3066V72.5713H118.989V64.8076L116.982 66.5068V63.7236L118.989 62.0244ZM130.415 61.7607L126.68 61.0869C127.1 59.583 127.822 58.4697 128.848 57.7471C129.873 57.0244 131.396 56.6631 133.418 56.6631C135.254 56.6631 136.621 56.8828 137.52 57.3223C138.418 57.752 139.048 58.3037 139.409 58.9775C139.78 59.6416 139.966 60.8672 139.966 62.6543L139.922 67.459C139.922 68.8262 139.985 69.8369 140.112 70.4912C140.249 71.1357 140.498 71.8291 140.859 72.5713H136.787C136.68 72.2979 136.548 71.8926 136.392 71.3555C136.323 71.1113 136.274 70.9502 136.245 70.8721C135.542 71.5557 134.79 72.0684 133.989 72.4102C133.188 72.752 132.334 72.9229 131.426 72.9229C129.824 72.9229 128.56 72.4883 127.632 71.6191C126.714 70.75 126.255 69.6514 126.255 68.3232C126.255 67.4443 126.465 66.6631 126.885 65.9795C127.305 65.2861 127.891 64.7588 128.643 64.3975C129.404 64.0264 130.498 63.7041 131.924 63.4307C133.848 63.0693 135.181 62.7324 135.923 62.4199V62.0098C135.923 61.2188 135.728 60.6572 135.337 60.3252C134.946 59.9834 134.209 59.8125 133.125 59.8125C132.393 59.8125 131.821 59.959 131.411 60.252C131.001 60.5352 130.669 61.0381 130.415 61.7607ZM135.923 65.1006C135.396 65.2764 134.561 65.4863 133.418 65.7305C132.275 65.9746 131.528 66.2139 131.177 66.4482C130.64 66.8291 130.371 67.3125 130.371 67.8984C130.371 68.4746 130.586 68.9727 131.016 69.3926C131.445 69.8125 131.992 70.0225 132.656 70.0225C133.398 70.0225 134.106 69.7783 134.78 69.29C135.278 68.9189 135.605 68.4648 135.762 67.9277C135.869 67.5762 135.923 66.9072 135.923 65.9209V65.1006ZM143.73 57.0146H147.524V59.1387C148.882 57.4883 150.498 56.6631 152.373 56.6631C153.369 56.6631 154.233 56.8682 154.966 57.2783C155.698 57.6885 156.299 58.3086 156.768 59.1387C157.451 58.3086 158.188 57.6885 158.979 57.2783C159.771 56.8682 160.615 56.6631 161.514 56.6631C162.656 56.6631 163.623 56.8975 164.414 57.3662C165.205 57.8252 165.796 58.5039 166.187 59.4023C166.47 60.0664 166.611 61.1406 166.611 62.625V72.5713H162.495V63.6797C162.495 62.1367 162.354 61.1406 162.07 60.6914C161.689 60.1055 161.104 59.8125 160.312 59.8125C159.736 59.8125 159.194 59.9883 158.687 60.3398C158.179 60.6914 157.812 61.209 157.588 61.8926C157.363 62.5664 157.251 63.6357 157.251 65.1006V72.5713H153.135V64.0459C153.135 62.5322 153.062 61.5557 152.915 61.1162C152.769 60.6768 152.539 60.3496 152.227 60.1348C151.924 59.9199 151.509 59.8125 150.981 59.8125C150.347 59.8125 149.775 59.9834 149.268 60.3252C148.76 60.667 148.394 61.1602 148.169 61.8047C147.954 62.4492 147.847 63.5186 147.847 65.0127V72.5713H143.73V57.0146ZM168.779 57.0146H173.159L176.88 68.0596L180.513 57.0146H184.775L179.282 71.9854L178.301 74.6953C177.939 75.6035 177.593 76.2969 177.261 76.7754C176.938 77.2539 176.562 77.6396 176.133 77.9326C175.713 78.2354 175.19 78.4697 174.565 78.6357C173.95 78.8018 173.252 78.8848 172.471 78.8848C171.68 78.8848 170.903 78.8018 170.142 78.6357L169.775 75.4131C170.42 75.54 171.001 75.6035 171.519 75.6035C172.476 75.6035 173.184 75.3203 173.643 74.7539C174.102 74.1973 174.453 73.4844 174.697 72.6152L168.779 57.0146Z" fill="#133079"/>
<line y1="123.571" x2="1415" y2="123.571" stroke="#133079" stroke-width="2"/>
</svg>
