<svg width="445" height="127" viewBox="0 0 445 127" fill="none" xmlns="http://www.w3.org/2000/svg">
<line y1="1.57129" x2="445" y2="1.57129" stroke="#133079" stroke-width="2"/>
<path d="M2.24121 74.5713V53.0967H6.57715V62.6328L15.3369 53.0967H21.167L13.0811 61.4609L21.6064 74.5713H15.9961L10.0928 64.4932L6.57715 68.082V74.5713H2.24121ZM27.7734 74.5713H23.6572V59.0146H27.4805V61.2266C28.1348 60.1816 28.7207 59.4932 29.2383 59.1611C29.7656 58.8291 30.3613 58.6631 31.0254 58.6631C31.9629 58.6631 32.8662 58.9219 33.7354 59.4395L32.4609 63.0283C31.7676 62.5791 31.123 62.3545 30.5273 62.3545C29.9512 62.3545 29.4629 62.5156 29.0625 62.8379C28.6621 63.1504 28.3447 63.7217 28.1104 64.5518C27.8857 65.3818 27.7734 67.1201 27.7734 69.7666V74.5713ZM33.8672 74.5713V71.3633L39.6973 64.6689C40.6543 63.5752 41.3623 62.7988 41.8213 62.3398C41.3428 62.3691 40.7129 62.3887 39.9316 62.3984L34.4385 62.4277V59.0146H47.2998V61.9297L41.3525 68.7852L39.2578 71.0557C40.4004 70.9873 41.1084 70.9531 41.3818 70.9531H47.7539V74.5713H33.8672ZM48.5742 59.0146H52.9541L56.6748 70.0596L60.3076 59.0146H64.5703L59.0771 73.9854L58.0957 76.6953C57.7344 77.6035 57.3877 78.2969 57.0557 78.7754C56.7334 79.2539 56.3574 79.6396 55.9277 79.9326C55.5078 80.2354 54.9854 80.4697 54.3604 80.6357C53.7451 80.8018 53.0469 80.8848 52.2656 80.8848C51.4746 80.8848 50.6982 80.8018 49.9365 80.6357L49.5703 77.4131C50.2148 77.54 50.7959 77.6035 51.3135 77.6035C52.2705 77.6035 52.9785 77.3203 53.4375 76.7539C53.8965 76.1973 54.248 75.4844 54.4922 74.6152L48.5742 59.0146ZM65.7715 70.1328L69.9023 69.5029C70.0781 70.3037 70.4346 70.9141 70.9717 71.334C71.5088 71.7441 72.2607 71.9492 73.2275 71.9492C74.292 71.9492 75.0928 71.7539 75.6299 71.3633C75.9912 71.0898 76.1719 70.7236 76.1719 70.2646C76.1719 69.9521 76.0742 69.6934 75.8789 69.4883C75.6738 69.293 75.2148 69.1123 74.502 68.9463C71.1816 68.2139 69.0771 67.5449 68.1885 66.9395C66.958 66.0996 66.3428 64.9326 66.3428 63.4385C66.3428 62.0908 66.875 60.958 67.9395 60.04C69.0039 59.1221 70.6543 58.6631 72.8906 58.6631C75.0195 58.6631 76.6016 59.0098 77.6367 59.7031C78.6719 60.3965 79.3848 61.4219 79.7754 62.7793L75.8936 63.4971C75.7275 62.8916 75.4102 62.4277 74.9414 62.1055C74.4824 61.7832 73.8232 61.6221 72.9639 61.6221C71.8799 61.6221 71.1035 61.7734 70.6348 62.0762C70.3223 62.291 70.166 62.5693 70.166 62.9111C70.166 63.2041 70.3027 63.4531 70.5762 63.6582C70.9473 63.9316 72.2266 64.3174 74.4141 64.8154C76.6113 65.3135 78.1445 65.9238 79.0137 66.6465C79.873 67.3789 80.3027 68.3994 80.3027 69.708C80.3027 71.1338 79.707 72.3594 78.5156 73.3848C77.3242 74.4102 75.5615 74.9229 73.2275 74.9229C71.1084 74.9229 69.4287 74.4932 68.1885 73.6338C66.958 72.7744 66.1523 71.6074 65.7715 70.1328ZM82.2656 74.5713V71.3633L88.0957 64.6689C89.0527 63.5752 89.7607 62.7988 90.2197 62.3398C89.7412 62.3691 89.1113 62.3887 88.3301 62.3984L82.8369 62.4277V59.0146H95.6982V61.9297L89.751 68.7852L87.6562 71.0557C88.7988 70.9873 89.5068 70.9531 89.7803 70.9531H96.1523V74.5713H82.2656ZM106.055 59.0146V62.2959H103.242V68.5654C103.242 69.835 103.267 70.5771 103.315 70.792C103.374 70.9971 103.496 71.168 103.682 71.3047C103.877 71.4414 104.111 71.5098 104.385 71.5098C104.766 71.5098 105.317 71.3779 106.04 71.1143L106.392 74.3076C105.435 74.7178 104.351 74.9229 103.14 74.9229C102.397 74.9229 101.729 74.8008 101.133 74.5566C100.537 74.3027 100.098 73.9805 99.8145 73.5898C99.541 73.1895 99.3506 72.6523 99.2432 71.9785C99.1553 71.5 99.1113 70.5332 99.1113 69.0781V62.2959H97.2217V59.0146H99.1113V55.9238L103.242 53.5215V59.0146H106.055ZM107.959 66.5732C107.959 65.2061 108.296 63.8828 108.97 62.6035C109.644 61.3242 110.596 60.3477 111.826 59.6738C113.066 59 114.448 58.6631 115.972 58.6631C118.325 58.6631 120.254 59.4297 121.758 60.9629C123.262 62.4863 124.014 64.415 124.014 66.749C124.014 69.1025 123.252 71.0557 121.729 72.6084C120.215 74.1514 118.306 74.9229 116.001 74.9229C114.575 74.9229 113.213 74.6006 111.914 73.9561C110.625 73.3115 109.644 72.3691 108.97 71.1289C108.296 69.8789 107.959 68.3604 107.959 66.5732ZM112.178 66.793C112.178 68.3359 112.544 69.5176 113.276 70.3379C114.009 71.1582 114.912 71.5684 115.986 71.5684C117.061 71.5684 117.959 71.1582 118.682 70.3379C119.414 69.5176 119.78 68.3262 119.78 66.7637C119.78 65.2402 119.414 64.0684 118.682 63.248C117.959 62.4277 117.061 62.0176 115.986 62.0176C114.912 62.0176 114.009 62.4277 113.276 63.248C112.544 64.0684 112.178 65.25 112.178 66.793ZM125.449 59.0146H127.734V57.8428C127.734 56.5342 127.871 55.5576 128.145 54.9131C128.428 54.2686 128.94 53.7461 129.683 53.3457C130.435 52.9355 131.382 52.7305 132.524 52.7305C133.696 52.7305 134.844 52.9062 135.967 53.2578L135.41 56.1289C134.756 55.9727 134.126 55.8945 133.521 55.8945C132.925 55.8945 132.495 56.0361 132.231 56.3193C131.978 56.5928 131.851 57.125 131.851 57.916V59.0146H134.927V62.252H131.851V74.5713H127.734V62.252H125.449V59.0146ZM145.737 74.5713V53.2725H150.073V70.9531H160.854V74.5713H145.737ZM163.931 56.9053V53.0967H168.047V56.9053H163.931ZM163.931 74.5713V59.0146H168.047V74.5713H163.931ZM170.83 70.1328L174.961 69.5029C175.137 70.3037 175.493 70.9141 176.03 71.334C176.567 71.7441 177.319 71.9492 178.286 71.9492C179.351 71.9492 180.151 71.7539 180.688 71.3633C181.05 71.0898 181.23 70.7236 181.23 70.2646C181.23 69.9521 181.133 69.6934 180.938 69.4883C180.732 69.293 180.273 69.1123 179.561 68.9463C176.24 68.2139 174.136 67.5449 173.247 66.9395C172.017 66.0996 171.401 64.9326 171.401 63.4385C171.401 62.0908 171.934 60.958 172.998 60.04C174.062 59.1221 175.713 58.6631 177.949 58.6631C180.078 58.6631 181.66 59.0098 182.695 59.7031C183.73 60.3965 184.443 61.4219 184.834 62.7793L180.952 63.4971C180.786 62.8916 180.469 62.4277 180 62.1055C179.541 61.7832 178.882 61.6221 178.022 61.6221C176.938 61.6221 176.162 61.7734 175.693 62.0762C175.381 62.291 175.225 62.5693 175.225 62.9111C175.225 63.2041 175.361 63.4531 175.635 63.6582C176.006 63.9316 177.285 64.3174 179.473 64.8154C181.67 65.3135 183.203 65.9238 184.072 66.6465C184.932 67.3789 185.361 68.3994 185.361 69.708C185.361 71.1338 184.766 72.3594 183.574 73.3848C182.383 74.4102 180.62 74.9229 178.286 74.9229C176.167 74.9229 174.487 74.4932 173.247 73.6338C172.017 72.7744 171.211 71.6074 170.83 70.1328Z" fill="#133079"/>
<g clip-path="url(#clip0_202_872)">
<path d="M369.391 123.919C369.391 123.919 366.953 102.547 387.954 100.163H396.94V96.0229C396.94 96.0229 403.262 98.7381 409.663 96.3259L409.865 100.163H420.366C420.366 100.163 438.652 101.988 437.546 123.919H369.391Z" fill="white"/>
<path d="M369.07 124.531H370.376L370.453 123.219L370.679 119.356C371.292 108.891 379.548 100.904 388.996 100.904H395.861V99.7935H388.401C378.598 99.7935 370.032 108.091 369.396 118.963L369.07 124.531Z" fill="#133079"/>
<path d="M437.403 119.356L437.528 123.219L437.706 124.531H438.952L438.626 118.963C437.99 108.091 429.424 99.7935 419.621 99.7935H409.896V100.904H419.086C428.533 100.904 436.789 108.891 437.403 119.356Z" fill="#133079"/>
<path d="M409.5 99.5713V95.5713H396.5V99.5713" stroke="#133079"/>
<path d="M403 110.571L403 123.571" stroke="#133079"/>
<path d="M410 98.5713L409.5 100.857C409.5 100.857 409.105 103.079 408.5 104.449C407.41 106.914 403 110.653 403 110.653L411.5 114.571L416 99.5713L410 98.5713Z" fill="#80B8E0"/>
<path d="M396 98.5713L396.5 100.857C396.5 100.857 396.895 103.079 397.5 104.449C398.59 106.914 403 110.653 403 110.653L395.5 114.571L390 99.5713L396 98.5713Z" fill="#80B8E0"/>
<path d="M403.283 32.4463C415.844 32.4463 425.758 44.1844 425.436 58.2879L425.093 73.2775C424.789 86.5645 415.028 97.0672 403.283 97.0672C391.538 97.0672 381.777 86.5645 381.473 73.2775L381.13 58.2879C380.808 44.1844 390.722 32.4463 403.283 32.4463Z" fill="white"/>
<path fill-rule="evenodd" clip-rule="evenodd" d="M426.445 57.8234L426.086 73.4219C425.768 87.2487 415.54 98.178 403.233 98.178C390.926 98.178 380.697 87.2487 380.379 73.4219L380.02 57.8234C379.682 43.1468 390.071 30.9319 403.233 30.9319C416.394 30.9319 426.783 43.1468 426.445 57.8234ZM403.182 32.5474C390.793 32.5474 381.014 44.1938 381.332 58.1872L381.67 73.0597C381.97 86.2428 391.598 96.6635 403.182 96.6635C414.767 96.6635 424.395 86.2428 424.694 73.0597L425.032 58.1872C425.35 44.1938 415.571 32.5474 403.182 32.5474Z" fill="#133079"/>
<path d="M400.809 89.0908H405.656C405.879 89.0908 406.06 89.2716 406.06 89.4947C406.06 89.7178 405.879 89.8986 405.656 89.8986H400.809C400.586 89.8986 400.405 89.7178 400.405 89.4947C400.405 89.2716 400.586 89.0908 400.809 89.0908Z" fill="#133079"/>
<path d="M396.568 84.2582L397.13 83.471C398.938 84.5052 401.086 85.1047 403.391 85.1047C405.721 85.1047 407.891 84.4915 409.712 83.436L410.301 84.2492C408.32 85.3957 405.96 86.0615 403.427 86.0615C400.899 86.0615 398.545 85.3992 396.568 84.2582Z" fill="#133079"/>
<path d="M379.995 60.0981C379.992 60.0982 379.747 59.9025 379.284 59.7567C379.053 59.684 378.766 59.6242 378.438 59.6094C378.356 59.6058 378.272 59.6049 378.186 59.6073C378.099 59.6098 378.011 59.6155 377.922 59.6251C377.742 59.6443 377.557 59.6787 377.371 59.7322C376.625 59.9465 375.865 60.4676 375.418 61.543C375.194 62.0808 375.046 62.7572 375.006 63.6035C374.997 63.8151 374.994 64.0373 374.998 64.2706C375.002 64.5039 375.014 64.7483 375.033 65.0043C375.072 65.5163 375.142 66.0747 375.246 66.6832C375.244 66.6826 375.149 68.5219 375.806 70.6355C376.425 72.7019 377.909 75.2403 380.65 75.9657C380.335 70.7169 380.325 65.3698 379.995 60.0981Z" fill="white"/>
<path d="M380.308 60.3096C380.308 60.3096 375.533 58.8301 375.701 63.7388C375.701 63.7388 376.412 70.8566 376.72 71.5126C376.72 71.5126 378.596 75.6568 381.69 75.8404L381.728 77.1762C381.728 77.1762 376.289 76.4788 375.238 70.2105L374.409 64.5161C374.409 64.5161 373.765 56.9801 380.01 58.8962L380.308 60.3096Z" fill="#133079"/>
<path d="M378.732 70.1984C378.732 70.1984 378.464 70.4004 378.235 70.4004C378.005 70.4004 377.741 70.1984 377.741 70.1984L377.249 65.2329C377.249 65.2329 377.929 62.7875 380.813 64.0798L380.882 65.4996C380.882 65.4996 378.351 64.602 378.403 65.7198C378.453 66.7957 378.732 70.1984 378.732 70.1984Z" fill="#133079"/>
<path d="M426.38 60.1094C426.382 60.1096 426.629 59.914 427.094 59.7683C427.326 59.6957 427.615 59.6359 427.944 59.6212C428.026 59.6175 428.111 59.6166 428.197 59.6191C428.284 59.6215 428.372 59.6273 428.462 59.6368C428.642 59.656 428.828 59.6903 429.015 59.7439C429.764 59.958 430.528 60.4787 430.977 61.5534C431.202 62.0908 431.351 62.7667 431.39 63.6125C431.4 63.8239 431.403 64.046 431.399 64.2791C431.394 64.5123 431.383 64.7565 431.363 65.0123C431.325 65.524 431.254 66.082 431.15 66.6901C431.152 66.6895 431.247 68.5276 430.587 70.6397C429.966 72.7047 428.475 75.2414 425.722 75.9663C426.039 70.7211 426.049 65.3776 426.38 60.1094Z" fill="white"/>
<path d="M426.065 60.3211C426.065 60.3211 430.861 58.8427 430.692 63.748C430.692 63.748 429.978 70.8609 429.668 71.5165C429.668 71.5165 427.784 75.6579 424.676 75.8414L424.638 77.1763C424.638 77.1763 430.101 76.4793 431.157 70.2153L431.989 64.5248C431.989 64.5248 432.636 56.9939 426.364 58.9087L426.065 60.3211Z" fill="#133079"/>
<path d="M427.648 70.2033C427.648 70.2033 427.916 70.4051 428.147 70.4051C428.378 70.4051 428.643 70.2033 428.643 70.2033L429.138 65.2411C429.138 65.2411 428.455 62.7974 425.557 64.0888L425.489 65.5077C425.489 65.5077 428.031 64.6106 427.978 65.7277C427.928 66.8029 427.648 70.2033 427.648 70.2033Z" fill="#133079"/>
<path d="M404.46 71.5713C405.895 73.4484 408.15 76.5768 406.305 77.8282C404.617 78.973 402.615 78.4539 402 78.4539" stroke="#133079"/>
<path d="M379 48.5712C379 53.3712 379.667 56.0712 381 57.5712C381.667 53.0712 383 45.5712 386 44.0712C386 44.0712 391.396 48.2129 395.5 49.0712C398.558 49.7108 400.376 50.0712 403.5 50.0712C407.21 50.0712 409.471 50.2143 413 49.0712C416.715 47.868 420.5 46.0712 421 43.0712C424.6 46.2712 425.167 54.4045 425.5 57.5712C426.667 53.7379 429.1 46.0712 425.5 42.0712C421 31.0712 412.5 28.5712 399 29.5712C388.2 30.3712 383.333 34.9045 383 38.5712C381 39.4045 379 43.7712 379 48.5712Z" fill="url(#paint0_linear_202_872)"/>
<circle cx="392" cy="64.5713" r="2" fill="#133079"/>
<circle cx="414" cy="64.5713" r="2" fill="#133079"/>
</g>
<line y1="125.571" x2="445" y2="125.571" stroke="#133079" stroke-width="2"/>
<defs>
<linearGradient id="paint0_linear_202_872" x1="427.392" y1="57.5712" x2="379" y2="57.5712" gradientUnits="userSpaceOnUse">
<stop stop-color="#133079"/>
<stop offset="1" stop-color="#0DA7DC"/>
</linearGradient>
<clipPath id="clip0_202_872">
<rect width="70.9254" height="99" fill="white" transform="translate(368.537 25.5713)"/>
</clipPath>
</defs>
</svg>
