<svg width="445" height="127" viewBox="0 0 445 127" fill="none" xmlns="http://www.w3.org/2000/svg">
<line y1="1.57129" x2="445" y2="1.57129" stroke="#133079" stroke-width="2"/>
<path d="M2.12402 74.5713V53.0967H8.61328L12.5098 67.7451L16.3623 53.0967H22.8662V74.5713H18.8379V57.667L14.5752 74.5713H10.4004L6.15234 57.667V74.5713H2.12402ZM27.1436 56.9053V53.0967H31.2598V56.9053H27.1436ZM27.1436 74.5713V59.0146H31.2598V74.5713H27.1436ZM49.0576 63.6143L45 64.3467C44.8633 63.5361 44.5508 62.9258 44.0625 62.5156C43.584 62.1055 42.959 61.9004 42.1875 61.9004C41.1621 61.9004 40.3418 62.2568 39.7266 62.9697C39.1211 63.6729 38.8184 64.8545 38.8184 66.5146C38.8184 68.3604 39.126 69.6641 39.7412 70.4258C40.3662 71.1875 41.2012 71.5684 42.2461 71.5684C43.0273 71.5684 43.667 71.3486 44.165 70.9092C44.6631 70.46 45.0146 69.6934 45.2197 68.6094L49.2627 69.2979C48.8428 71.1533 48.0371 72.5547 46.8457 73.502C45.6543 74.4492 44.0576 74.9229 42.0557 74.9229C39.7803 74.9229 37.9639 74.2051 36.6064 72.7695C35.2588 71.334 34.585 69.3467 34.585 66.8076C34.585 64.2393 35.2637 62.2422 36.6211 60.8164C37.9785 59.3809 39.8145 58.6631 42.1289 58.6631C44.0234 58.6631 45.5273 59.0732 46.6406 59.8936C47.7637 60.7041 48.5693 61.9443 49.0576 63.6143ZM56.2939 53.0967V60.9922C57.6221 59.4395 59.209 58.6631 61.0547 58.6631C62.002 58.6631 62.8564 58.8389 63.6182 59.1904C64.3799 59.542 64.9512 59.9912 65.332 60.5381C65.7227 61.085 65.9863 61.6904 66.123 62.3545C66.2695 63.0186 66.3428 64.0488 66.3428 65.4453V74.5713H62.2266V66.3535C62.2266 64.7227 62.1484 63.6875 61.9922 63.248C61.8359 62.8086 61.5576 62.4619 61.1572 62.208C60.7666 61.9443 60.2734 61.8125 59.6777 61.8125C58.9941 61.8125 58.3838 61.9785 57.8467 62.3105C57.3096 62.6426 56.9141 63.1455 56.6602 63.8193C56.416 64.4834 56.2939 65.4697 56.2939 66.7783V74.5713H52.1777V53.0967H56.2939ZM73.6084 63.7607L69.873 63.0869C70.293 61.583 71.0156 60.4697 72.041 59.7471C73.0664 59.0244 74.5898 58.6631 76.6113 58.6631C78.4473 58.6631 79.8145 58.8828 80.7129 59.3223C81.6113 59.752 82.2412 60.3037 82.6025 60.9775C82.9736 61.6416 83.1592 62.8672 83.1592 64.6543L83.1152 69.459C83.1152 70.8262 83.1787 71.8369 83.3057 72.4912C83.4424 73.1357 83.6914 73.8291 84.0527 74.5713H79.9805C79.873 74.2979 79.7412 73.8926 79.585 73.3555C79.5166 73.1113 79.4678 72.9502 79.4385 72.8721C78.7354 73.5557 77.9834 74.0684 77.1826 74.4102C76.3818 74.752 75.5273 74.9229 74.6191 74.9229C73.0176 74.9229 71.7529 74.4883 70.8252 73.6191C69.9072 72.75 69.4482 71.6514 69.4482 70.3232C69.4482 69.4443 69.6582 68.6631 70.0781 67.9795C70.498 67.2861 71.084 66.7588 71.8359 66.3975C72.5977 66.0264 73.6914 65.7041 75.1172 65.4307C77.041 65.0693 78.374 64.7324 79.1162 64.4199V64.0098C79.1162 63.2188 78.9209 62.6572 78.5303 62.3252C78.1396 61.9834 77.4023 61.8125 76.3184 61.8125C75.5859 61.8125 75.0146 61.959 74.6045 62.252C74.1943 62.5352 73.8623 63.0381 73.6084 63.7607ZM79.1162 67.1006C78.5889 67.2764 77.7539 67.4863 76.6113 67.7305C75.4688 67.9746 74.7217 68.2139 74.3701 68.4482C73.833 68.8291 73.5645 69.3125 73.5645 69.8984C73.5645 70.4746 73.7793 70.9727 74.209 71.3926C74.6387 71.8125 75.1855 72.0225 75.8496 72.0225C76.5918 72.0225 77.2998 71.7783 77.9736 71.29C78.4717 70.9189 78.7988 70.4648 78.9551 69.9277C79.0625 69.5762 79.1162 68.9072 79.1162 67.9209V67.1006ZM87.2314 64.0244V53.0967H91.3477V60.5234L93.3545 58.8242V61.6074L91.3477 63.3066V74.5713H87.2314V66.8076L85.2246 68.5068V65.7236L87.2314 64.0244ZM102.861 67.584L107.08 67.1738C107.334 68.5898 107.847 69.6299 108.618 70.2939C109.399 70.958 110.449 71.29 111.768 71.29C113.164 71.29 114.214 70.9971 114.917 70.4111C115.63 69.8154 115.986 69.1221 115.986 68.3311C115.986 67.8232 115.835 67.3936 115.532 67.042C115.239 66.6807 114.722 66.3682 113.979 66.1045C113.472 65.9287 112.314 65.6162 110.508 65.167C108.184 64.5908 106.553 63.8828 105.615 63.043C104.297 61.8613 103.638 60.4209 103.638 58.7217C103.638 57.6279 103.945 56.6074 104.561 55.6602C105.186 54.7031 106.079 53.9756 107.241 53.4775C108.413 52.9795 109.824 52.7305 111.475 52.7305C114.17 52.7305 116.196 53.3213 117.554 54.5029C118.921 55.6846 119.639 57.2617 119.707 59.2344L115.371 59.4248C115.186 58.3213 114.785 57.5303 114.17 57.0518C113.564 56.5635 112.651 56.3193 111.431 56.3193C110.171 56.3193 109.185 56.5781 108.472 57.0957C108.013 57.4277 107.783 57.8721 107.783 58.4287C107.783 58.9365 107.998 59.3711 108.428 59.7324C108.975 60.1914 110.303 60.6699 112.412 61.168C114.521 61.666 116.079 62.1836 117.085 62.7207C118.101 63.248 118.892 63.9756 119.458 64.9033C120.034 65.8213 120.322 66.959 120.322 68.3164C120.322 69.5469 119.98 70.6992 119.297 71.7734C118.613 72.8477 117.646 73.6484 116.396 74.1758C115.146 74.6934 113.589 74.9521 111.724 74.9521C109.009 74.9521 106.924 74.3271 105.469 73.0771C104.014 71.8174 103.145 69.9863 102.861 67.584ZM122.285 74.5713V71.3633L128.115 64.6689C129.072 63.5752 129.78 62.7988 130.239 62.3398C129.761 62.3691 129.131 62.3887 128.35 62.3984L122.856 62.4277V59.0146H135.718V61.9297L129.771 68.7852L127.676 71.0557C128.818 70.9873 129.526 70.9531 129.8 70.9531H136.172V74.5713H122.285ZM152.505 63.6143L148.447 64.3467C148.311 63.5361 147.998 62.9258 147.51 62.5156C147.031 62.1055 146.406 61.9004 145.635 61.9004C144.609 61.9004 143.789 62.2568 143.174 62.9697C142.568 63.6729 142.266 64.8545 142.266 66.5146C142.266 68.3604 142.573 69.6641 143.188 70.4258C143.813 71.1875 144.648 71.5684 145.693 71.5684C146.475 71.5684 147.114 71.3486 147.612 70.9092C148.11 70.46 148.462 69.6934 148.667 68.6094L152.71 69.2979C152.29 71.1533 151.484 72.5547 150.293 73.502C149.102 74.4492 147.505 74.9229 145.503 74.9229C143.228 74.9229 141.411 74.2051 140.054 72.7695C138.706 71.334 138.032 69.3467 138.032 66.8076C138.032 64.2393 138.711 62.2422 140.068 60.8164C141.426 59.3809 143.262 58.6631 145.576 58.6631C147.471 58.6631 148.975 59.0732 150.088 59.8936C151.211 60.7041 152.017 61.9443 152.505 63.6143ZM153.984 74.5713V71.3633L159.814 64.6689C160.771 63.5752 161.479 62.7988 161.938 62.3398C161.46 62.3691 160.83 62.3887 160.049 62.3984L154.556 62.4277V59.0146H167.417V61.9297L161.47 68.7852L159.375 71.0557C160.518 70.9873 161.226 70.9531 161.499 70.9531H167.871V74.5713H153.984ZM179.648 69.6201L183.75 70.3086C183.223 71.8125 182.388 72.96 181.245 73.751C180.112 74.5322 178.691 74.9229 176.982 74.9229C174.277 74.9229 172.275 74.0391 170.977 72.2715C169.951 70.8555 169.438 69.0684 169.438 66.9102C169.438 64.332 170.112 62.3154 171.46 60.8604C172.808 59.3955 174.512 58.6631 176.572 58.6631C178.887 58.6631 180.713 59.4297 182.051 60.9629C183.389 62.4863 184.028 64.8252 183.97 67.9795H173.657C173.687 69.2002 174.019 70.1523 174.653 70.8359C175.288 71.5098 176.079 71.8467 177.026 71.8467C177.671 71.8467 178.213 71.6709 178.652 71.3193C179.092 70.9678 179.424 70.4014 179.648 69.6201ZM179.883 65.46C179.854 64.2686 179.546 63.3652 178.96 62.75C178.374 62.125 177.661 61.8125 176.821 61.8125C175.923 61.8125 175.181 62.1396 174.595 62.7939C174.009 63.4482 173.721 64.3369 173.73 65.46H179.883ZM187.222 59.0146H191.06V61.2998C191.558 60.5186 192.231 59.8838 193.081 59.3955C193.931 58.9072 194.873 58.6631 195.908 58.6631C197.715 58.6631 199.248 59.3711 200.508 60.7871C201.768 62.2031 202.397 64.1758 202.397 66.7051C202.397 69.3027 201.763 71.3242 200.493 72.7695C199.224 74.2051 197.686 74.9229 195.879 74.9229C195.02 74.9229 194.238 74.752 193.535 74.4102C192.842 74.0684 192.109 73.4824 191.338 72.6523V80.4893H187.222V59.0146ZM191.294 66.5293C191.294 68.2773 191.641 69.5713 192.334 70.4111C193.027 71.2412 193.872 71.6562 194.868 71.6562C195.825 71.6562 196.621 71.2754 197.256 70.5137C197.891 69.7422 198.208 68.4824 198.208 66.7344C198.208 65.1035 197.881 63.8926 197.227 63.1016C196.572 62.3105 195.762 61.915 194.795 61.915C193.789 61.915 192.954 62.3057 192.29 63.0869C191.626 63.8584 191.294 65.0059 191.294 66.5293ZM208.755 63.7607L205.02 63.0869C205.439 61.583 206.162 60.4697 207.188 59.7471C208.213 59.0244 209.736 58.6631 211.758 58.6631C213.594 58.6631 214.961 58.8828 215.859 59.3223C216.758 59.752 217.388 60.3037 217.749 60.9775C218.12 61.6416 218.306 62.8672 218.306 64.6543L218.262 69.459C218.262 70.8262 218.325 71.8369 218.452 72.4912C218.589 73.1357 218.838 73.8291 219.199 74.5713H215.127C215.02 74.2979 214.888 73.8926 214.731 73.3555C214.663 73.1113 214.614 72.9502 214.585 72.8721C213.882 73.5557 213.13 74.0684 212.329 74.4102C211.528 74.752 210.674 74.9229 209.766 74.9229C208.164 74.9229 206.899 74.4883 205.972 73.6191C205.054 72.75 204.595 71.6514 204.595 70.3232C204.595 69.4443 204.805 68.6631 205.225 67.9795C205.645 67.2861 206.23 66.7588 206.982 66.3975C207.744 66.0264 208.838 65.7041 210.264 65.4307C212.188 65.0693 213.521 64.7324 214.263 64.4199V64.0098C214.263 63.2188 214.067 62.6572 213.677 62.3252C213.286 61.9834 212.549 61.8125 211.465 61.8125C210.732 61.8125 210.161 61.959 209.751 62.252C209.341 62.5352 209.009 63.0381 208.755 63.7607ZM214.263 67.1006C213.735 67.2764 212.9 67.4863 211.758 67.7305C210.615 67.9746 209.868 68.2139 209.517 68.4482C208.979 68.8291 208.711 69.3125 208.711 69.8984C208.711 70.4746 208.926 70.9727 209.355 71.3926C209.785 71.8125 210.332 72.0225 210.996 72.0225C211.738 72.0225 212.446 71.7783 213.12 71.29C213.618 70.9189 213.945 70.4648 214.102 69.9277C214.209 69.5762 214.263 68.9072 214.263 67.9209V67.1006ZM236.528 74.5713H232.412V66.6318C232.412 64.9521 232.324 63.8682 232.148 63.3799C231.973 62.8818 231.685 62.4961 231.284 62.2227C230.894 61.9492 230.42 61.8125 229.863 61.8125C229.15 61.8125 228.511 62.0078 227.944 62.3984C227.378 62.7891 226.987 63.3066 226.772 63.9512C226.567 64.5957 226.465 65.7871 226.465 67.5254V74.5713H222.349V59.0146H226.172V61.2998C227.529 59.542 229.238 58.6631 231.299 58.6631C232.207 58.6631 233.037 58.8291 233.789 59.1611C234.541 59.4834 235.107 59.8984 235.488 60.4062C235.879 60.9141 236.147 61.4902 236.294 62.1348C236.45 62.7793 236.528 63.7021 236.528 64.9033V74.5713ZM240.718 56.9053V53.0967H244.834V56.9053H240.718ZM240.718 74.5713V59.0146H244.834V74.5713H240.718ZM252.144 63.7607L248.408 63.0869C248.828 61.583 249.551 60.4697 250.576 59.7471C251.602 59.0244 253.125 58.6631 255.146 58.6631C256.982 58.6631 258.35 58.8828 259.248 59.3223C260.146 59.752 260.776 60.3037 261.138 60.9775C261.509 61.6416 261.694 62.8672 261.694 64.6543L261.65 69.459C261.65 70.8262 261.714 71.8369 261.841 72.4912C261.978 73.1357 262.227 73.8291 262.588 74.5713H258.516C258.408 74.2979 258.276 73.8926 258.12 73.3555C258.052 73.1113 258.003 72.9502 257.974 72.8721C257.271 73.5557 256.519 74.0684 255.718 74.4102C254.917 74.752 254.062 74.9229 253.154 74.9229C251.553 74.9229 250.288 74.4883 249.36 73.6191C248.442 72.75 247.983 71.6514 247.983 70.3232C247.983 69.4443 248.193 68.6631 248.613 67.9795C249.033 67.2861 249.619 66.7588 250.371 66.3975C251.133 66.0264 252.227 65.7041 253.652 65.4307C255.576 65.0693 256.909 64.7324 257.651 64.4199V64.0098C257.651 63.2188 257.456 62.6572 257.065 62.3252C256.675 61.9834 255.938 61.8125 254.854 61.8125C254.121 61.8125 253.55 61.959 253.14 62.252C252.729 62.5352 252.397 63.0381 252.144 63.7607ZM257.651 67.1006C257.124 67.2764 256.289 67.4863 255.146 67.7305C254.004 67.9746 253.257 68.2139 252.905 68.4482C252.368 68.8291 252.1 69.3125 252.1 69.8984C252.1 70.4746 252.314 70.9727 252.744 71.3926C253.174 71.8125 253.721 72.0225 254.385 72.0225C255.127 72.0225 255.835 71.7783 256.509 71.29C257.007 70.9189 257.334 70.4648 257.49 69.9277C257.598 69.5762 257.651 68.9072 257.651 67.9209V67.1006ZM265.62 74.5713V53.0967H269.736V64.4932L274.556 59.0146H279.624L274.307 64.6982L280.005 74.5713H275.566L271.655 67.584L269.736 69.5908V74.5713H265.62Z" fill="#133079"/>
<g clip-path="url(#clip0_202_985)">
<path d="M369.391 123.919C369.391 123.919 366.953 102.547 387.954 100.163H396.94V96.0229C396.94 96.0229 403.262 98.7381 409.663 96.3259L409.865 100.163H420.366C420.366 100.163 438.652 101.988 437.546 123.919H369.391Z" fill="white"/>
<path d="M409.5 100.571V96.5713H396.5V100.571" stroke="#133079"/>
<path d="M403 111.571L403 124.571" stroke="#133079"/>
<path d="M369.07 124.531H370.376L370.453 123.219L370.679 119.356C371.292 108.891 379.548 100.904 388.996 100.904H395.861V99.7935H388.401C378.598 99.7935 370.032 108.091 369.396 118.963L369.07 124.531Z" fill="#133079"/>
<path d="M437.403 119.356L437.528 123.219L437.706 124.531H438.952L438.626 118.963C437.99 108.091 429.424 99.7935 419.621 99.7935H409.896V100.904H419.086C428.533 100.904 436.789 108.891 437.403 119.356Z" fill="#133079"/>
<path d="M403.283 32.4463C415.844 32.4463 425.758 44.1844 425.436 58.2879L425.093 73.2775C424.789 86.5645 415.028 97.0672 403.283 97.0672C391.538 97.0672 381.777 86.5645 381.473 73.2775L381.13 58.2879C380.808 44.1844 390.722 32.4463 403.283 32.4463Z" fill="white"/>
<path fill-rule="evenodd" clip-rule="evenodd" d="M426.445 57.8234L426.086 73.4219C425.768 87.2487 415.54 98.178 403.233 98.178C390.926 98.178 380.697 87.2487 380.379 73.4219L380.02 57.8234C379.682 43.1468 390.071 30.9319 403.233 30.9319C416.394 30.9319 426.783 43.1468 426.445 57.8234ZM403.182 32.5474C390.793 32.5474 381.014 44.1938 381.332 58.1872L381.67 73.0597C381.97 86.2428 391.598 96.6635 403.182 96.6635C414.767 96.6635 424.395 86.2428 424.694 73.0597L425.032 58.1872C425.35 44.1938 415.571 32.5474 403.182 32.5474Z" fill="#133079"/>
<path d="M400.809 89.0908H405.656C405.879 89.0908 406.06 89.2716 406.06 89.4947C406.06 89.7178 405.879 89.8986 405.656 89.8986H400.809C400.586 89.8986 400.405 89.7178 400.405 89.4947C400.405 89.2716 400.586 89.0908 400.809 89.0908Z" fill="#133079"/>
<path d="M396.568 84.2582L397.13 83.471C398.938 84.5052 401.086 85.1047 403.391 85.1047C405.721 85.1047 407.891 84.4915 409.712 83.436L410.301 84.2492C408.32 85.3957 405.96 86.0615 403.427 86.0615C400.899 86.0615 398.545 85.3992 396.568 84.2582Z" fill="#133079"/>
<path d="M379.995 60.0981C379.992 60.0982 379.747 59.9025 379.284 59.7567C379.053 59.684 378.766 59.6242 378.438 59.6094C378.356 59.6058 378.272 59.6049 378.186 59.6073C378.099 59.6098 378.011 59.6155 377.922 59.6251C377.742 59.6443 377.557 59.6787 377.371 59.7322C376.625 59.9465 375.865 60.4676 375.418 61.543C375.194 62.0808 375.046 62.7572 375.007 63.6035C374.997 63.8151 374.994 64.0373 374.998 64.2706C375.002 64.5039 375.014 64.7483 375.033 65.0043C375.072 65.5163 375.142 66.0747 375.246 66.6832C375.244 66.6826 375.149 68.5219 375.806 70.6355C376.425 72.7019 377.909 75.2403 380.65 75.9657C380.335 70.7169 380.325 65.3698 379.995 60.0981Z" fill="white"/>
<path d="M380.308 60.3096C380.308 60.3096 375.533 58.8301 375.701 63.7388C375.701 63.7388 376.412 70.8566 376.72 71.5126C376.72 71.5126 378.596 75.6568 381.69 75.8404L381.728 77.1762C381.728 77.1762 376.289 76.4788 375.238 70.2105L374.409 64.5161C374.409 64.5161 373.765 56.9801 380.01 58.8962L380.308 60.3096Z" fill="#133079"/>
<path d="M410 99.0713L409.5 101.857C409.5 101.857 409.105 104.079 408.5 105.449C407.41 107.914 403 111.653 403 111.653L411.5 115.571L416 99.5713L410 99.0713Z" fill="#80B8E0"/>
<path d="M396 99.0713L396.5 101.857C396.5 101.857 396.895 104.079 397.5 105.449C398.59 107.914 403 111.653 403 111.653L395.5 115.571L390 99.5713L396 99.0713Z" fill="#80B8E0"/>
<rect x="383.516" y="58.3396" width="16.6304" height="11.8788" rx="2.37577" fill="#80B8E0" stroke="#133079"/>
<rect x="406.086" y="58.3396" width="16.6304" height="11.8788" rx="2.37577" fill="#80B8E0" stroke="#133079"/>
<path d="M400 60.5713H403.25H406.5" stroke="#133079"/>
<path d="M381 60.5713L382.5 60.5713L384 60.5713" stroke="#133079"/>
<path d="M423 60.5713L424.5 60.5713L426 60.5713" stroke="#133079"/>
<path d="M378.732 70.1984C378.732 70.1984 378.464 70.4004 378.235 70.4004C378.005 70.4004 377.741 70.1984 377.741 70.1984L377.249 65.2329C377.249 65.2329 377.929 62.7875 380.813 64.0798L380.882 65.4996C380.882 65.4996 378.351 64.602 378.403 65.7198C378.453 66.7957 378.732 70.1984 378.732 70.1984Z" fill="#133079"/>
<path d="M426.38 60.1094C426.383 60.1096 426.629 59.914 427.094 59.7683C427.326 59.6957 427.615 59.6359 427.944 59.6212C428.026 59.6175 428.111 59.6166 428.197 59.6191C428.284 59.6215 428.372 59.6273 428.462 59.6368C428.642 59.656 428.828 59.6903 429.015 59.7439C429.764 59.958 430.528 60.4787 430.977 61.5534C431.202 62.0908 431.351 62.7667 431.39 63.6125C431.4 63.8239 431.403 64.046 431.399 64.2791C431.394 64.5123 431.383 64.7565 431.363 65.0123C431.325 65.524 431.254 66.082 431.15 66.6901C431.152 66.6895 431.247 68.5276 430.587 70.6397C429.966 72.7047 428.475 75.2414 425.722 75.9663C426.039 70.7211 426.049 65.3776 426.38 60.1094Z" fill="white"/>
<path d="M426.065 60.3211C426.065 60.3211 430.861 58.8427 430.692 63.748C430.692 63.748 429.978 70.8609 429.668 71.5165C429.668 71.5165 427.784 75.6579 424.676 75.8414L424.638 77.1763C424.638 77.1763 430.101 76.4793 431.157 70.2153L431.989 64.5248C431.989 64.5248 432.636 56.9939 426.364 58.9087L426.065 60.3211Z" fill="#133079"/>
<path d="M427.648 70.2033C427.648 70.2033 427.916 70.4051 428.147 70.4051C428.378 70.4051 428.643 70.2033 428.643 70.2033L429.138 65.2411C429.138 65.2411 428.455 62.7974 425.557 64.0888L425.489 65.5077C425.489 65.5077 428.031 64.6106 427.978 65.7277C427.928 66.8029 427.648 70.2033 427.648 70.2033Z" fill="#133079"/>
<path d="M404.46 71.5713C405.895 73.4484 408.15 76.5768 406.305 77.8282C404.617 78.973 402.615 78.4539 402 78.4539" stroke="#133079"/>
<path d="M390.409 62.677H394.044C394.546 62.677 394.953 63.1652 394.953 63.7675C394.953 64.3697 394.546 64.858 394.044 64.858H390.409C389.907 64.858 389.5 64.3697 389.5 63.7675C389.5 63.1652 389.907 62.677 390.409 62.677Z" fill="#133079"/>
<path d="M412.623 62.4346H416.258C416.76 62.4346 417.166 62.9228 417.166 63.525C417.166 64.1273 416.76 64.6155 416.258 64.6155H412.623C412.121 64.6155 411.714 64.1273 411.714 63.525C411.714 62.9228 412.121 62.4346 412.623 62.4346Z" fill="#133079"/>
<path d="M379 48.5712C379 53.3712 379.667 56.0712 381 57.5712C381.667 53.0712 383 45.5712 386 44.0712C386 44.0712 387 46.0712 388.5 47.5712C389 45.5712 388.846 44.0712 391 44.0712C393 44.0712 393.5 47.5712 394 49.0712C394.5 47.5712 395.5 43.5712 398.5 43.5712C401.542 43.5712 403 47.5712 403.5 49.0712C404 47.5712 405.2 44.0712 408 44.0712C410.8 44.0712 412 47.5712 412.5 49.0712C413 47.5712 414.088 45.5712 417 45.5712C420 45.5712 419.667 48.7379 420 50.0712C420.5 49.5712 422.4 47.8712 422 45.0712C425.6 48.2712 425.167 54.4045 425.5 57.5712C426.667 53.7379 429.1 46.0712 425.5 42.0712C421 31.0712 412.5 28.5712 399 29.5712C388.2 30.3712 383.333 34.9045 383 38.5712C381 39.4045 379 43.7712 379 48.5712Z" fill="url(#paint0_linear_202_985)"/>
</g>
<line y1="125.571" x2="445" y2="125.571" stroke="#133079" stroke-width="2"/>
<defs>
<linearGradient id="paint0_linear_202_985" x1="427.392" y1="57.5712" x2="379" y2="57.5712" gradientUnits="userSpaceOnUse">
<stop stop-color="#133079"/>
<stop offset="1" stop-color="#0DA7DC"/>
</linearGradient>
<clipPath id="clip0_202_985">
<rect width="70.9254" height="99" fill="white" transform="translate(368.537 25.5713)"/>
</clipPath>
</defs>
</svg>
