<svg width="1900" height="81" viewBox="0 0 1900 81" fill="none" xmlns="http://www.w3.org/2000/svg">
<path d="M4.57031 51.5713V8.62207H10.4004L32.959 42.3428V8.62207H38.4082V51.5713H32.5781L10.0195 17.8213V51.5713H4.57031ZM67.6172 47.7334C65.6641 49.3936 63.7793 50.5654 61.9629 51.249C60.166 51.9326 58.2324 52.2744 56.1621 52.2744C52.7441 52.2744 50.1172 51.4443 48.2812 49.7842C46.4453 48.1045 45.5273 45.9658 45.5273 43.3682C45.5273 41.8447 45.8691 40.458 46.5527 39.208C47.2559 37.9385 48.1641 36.9229 49.2773 36.1611C50.4102 35.3994 51.6797 34.8232 53.0859 34.4326C54.1211 34.1592 55.6836 33.8955 57.7734 33.6416C62.0312 33.1338 65.166 32.5283 67.1777 31.8252C67.1973 31.1025 67.207 30.6436 67.207 30.4482C67.207 28.2998 66.709 26.7861 65.7129 25.9072C64.3652 24.7158 62.3633 24.1201 59.707 24.1201C57.2266 24.1201 55.3906 24.5596 54.1992 25.4385C53.0273 26.2979 52.1582 27.8311 51.5918 30.0381L46.4355 29.335C46.9043 27.1279 47.6758 25.3506 48.75 24.0029C49.8242 22.6357 51.377 21.5908 53.4082 20.8682C55.4395 20.126 57.793 19.7549 60.4688 19.7549C63.125 19.7549 65.2832 20.0674 66.9434 20.6924C68.6035 21.3174 69.8242 22.1084 70.6055 23.0654C71.3867 24.0029 71.9336 25.1943 72.2461 26.6396C72.4219 27.5381 72.5098 29.1592 72.5098 31.5029V38.5342C72.5098 43.4365 72.6172 46.542 72.832 47.8506C73.0664 49.1396 73.5156 50.3799 74.1797 51.5713H68.6719C68.125 50.4775 67.7734 49.1982 67.6172 47.7334ZM67.1777 35.9561C65.2637 36.7373 62.3926 37.4014 58.5645 37.9482C56.3965 38.2607 54.8633 38.6123 53.9648 39.0029C53.0664 39.3936 52.373 39.9697 51.8848 40.7314C51.3965 41.4736 51.1523 42.3037 51.1523 43.2217C51.1523 44.6279 51.6797 45.7998 52.7344 46.7373C53.8086 47.6748 55.3711 48.1436 57.4219 48.1436C59.4531 48.1436 61.2598 47.7041 62.8418 46.8252C64.4238 45.9268 65.5859 44.7061 66.3281 43.1631C66.8945 41.9717 67.1777 40.2139 67.1777 37.8896V35.9561ZM78.6035 42.2842L83.8184 41.4639C84.1113 43.5537 84.9219 45.1553 86.25 46.2686C87.5977 47.3818 89.4727 47.9385 91.875 47.9385C94.2969 47.9385 96.0938 47.4502 97.2656 46.4736C98.4375 45.4775 99.0234 44.3154 99.0234 42.9873C99.0234 41.7959 98.5059 40.8584 97.4707 40.1748C96.748 39.7061 94.9512 39.1104 92.0801 38.3877C88.2129 37.4111 85.5273 36.5713 84.0234 35.8682C82.5391 35.1455 81.4062 34.1592 80.625 32.9092C79.8633 31.6396 79.4824 30.2432 79.4824 28.7197C79.4824 27.333 79.7949 26.0537 80.4199 24.8818C81.0645 23.6904 81.9336 22.7041 83.0273 21.9229C83.8477 21.3174 84.9609 20.8096 86.3672 20.3994C87.793 19.9697 89.3164 19.7549 90.9375 19.7549C93.3789 19.7549 95.5176 20.1064 97.3535 20.8096C99.209 21.5127 100.576 22.4697 101.455 23.6807C102.334 24.8721 102.939 26.4736 103.271 28.4854L98.1152 29.1885C97.8809 27.5869 97.1973 26.3369 96.0645 25.4385C94.9512 24.54 93.3691 24.0908 91.3184 24.0908C88.8965 24.0908 87.168 24.4912 86.1328 25.292C85.0977 26.0928 84.5801 27.0303 84.5801 28.1045C84.5801 28.7881 84.7949 29.4033 85.2246 29.9502C85.6543 30.5166 86.3281 30.9854 87.2461 31.3564C87.7734 31.5518 89.3262 32.001 91.9043 32.7041C95.6348 33.7002 98.2324 34.5205 99.6973 35.165C101.182 35.79 102.344 36.708 103.184 37.9189C104.023 39.1299 104.443 40.6338 104.443 42.4307C104.443 44.1885 103.926 45.8486 102.891 47.4111C101.875 48.9541 100.4 50.1553 98.4668 51.0146C96.5332 51.8545 94.3457 52.2744 91.9043 52.2744C87.8613 52.2744 84.7754 51.4346 82.6465 49.7549C80.5371 48.0752 79.1895 45.585 78.6035 42.2842ZM110.742 14.6865V8.62207H116.016V14.6865H110.742ZM110.742 51.5713V20.458H116.016V51.5713H110.742ZM140.801 51.5713V8.62207H146.074V33.1143L158.555 20.458H165.381L153.486 32.001L166.582 51.5713H160.078L149.795 35.6631L146.074 39.2373V51.5713H140.801ZM170.654 51.5713V8.62207H175.928V51.5713H170.654ZM184.16 14.6865V8.62207H189.434V14.6865H184.16ZM184.16 51.5713V20.458H189.434V51.5713H184.16ZM218.789 41.5518L224.238 42.2256C223.379 45.4092 221.787 47.8799 219.463 49.6377C217.139 51.3955 214.17 52.2744 210.557 52.2744C206.006 52.2744 202.393 50.8779 199.717 48.085C197.061 45.2725 195.732 41.3369 195.732 36.2783C195.732 31.0439 197.08 26.9814 199.775 24.0908C202.471 21.2002 205.967 19.7549 210.264 19.7549C214.424 19.7549 217.822 21.1709 220.459 24.0029C223.096 26.835 224.414 30.8193 224.414 35.9561C224.414 36.2686 224.404 36.7373 224.385 37.3623H201.182C201.377 40.7803 202.344 43.3975 204.082 45.2139C205.82 47.0303 207.988 47.9385 210.586 47.9385C212.52 47.9385 214.17 47.4307 215.537 46.415C216.904 45.3994 217.988 43.7783 218.789 41.5518ZM201.475 33.0264H218.848C218.613 30.4092 217.949 28.4463 216.855 27.1377C215.176 25.1064 212.998 24.0908 210.322 24.0908C207.9 24.0908 205.859 24.9014 204.199 26.5225C202.559 28.1436 201.65 30.3115 201.475 33.0264ZM230.889 51.5713V20.458H235.635V24.8818C237.92 21.4639 241.221 19.7549 245.537 19.7549C247.412 19.7549 249.131 20.0967 250.693 20.7803C252.275 21.4443 253.457 22.3232 254.238 23.417C255.02 24.5107 255.566 25.8096 255.879 27.3135C256.074 28.29 256.172 29.999 256.172 32.4404V51.5713H250.898V32.6455C250.898 30.4971 250.693 28.8955 250.283 27.8408C249.873 26.7666 249.141 25.917 248.086 25.292C247.051 24.6475 245.83 24.3252 244.424 24.3252C242.178 24.3252 240.234 25.0381 238.594 26.4639C236.973 27.8896 236.162 30.5947 236.162 34.5791V51.5713H230.889ZM284.59 40.1748L289.775 40.8486C289.209 44.4229 287.754 47.2256 285.41 49.2568C283.086 51.2686 280.225 52.2744 276.826 52.2744C272.568 52.2744 269.141 50.8877 266.543 48.1143C263.965 45.3213 262.676 41.3271 262.676 36.1318C262.676 32.7725 263.232 29.833 264.346 27.3135C265.459 24.7939 267.148 22.9092 269.414 21.6592C271.699 20.3896 274.18 19.7549 276.855 19.7549C280.234 19.7549 282.998 20.6143 285.146 22.333C287.295 24.0322 288.672 26.4541 289.277 29.5986L284.15 30.3896C283.662 28.2998 282.793 26.7275 281.543 25.6729C280.312 24.6182 278.818 24.0908 277.061 24.0908C274.404 24.0908 272.246 25.0479 270.586 26.9619C268.926 28.8564 268.096 31.8643 268.096 35.9854C268.096 40.165 268.896 43.2021 270.498 45.0967C272.1 46.9912 274.189 47.9385 276.768 47.9385C278.838 47.9385 280.566 47.3037 281.953 46.0342C283.34 44.7646 284.219 42.8115 284.59 40.1748ZM294.316 14.6865V8.62207H299.59V14.6865H294.316ZM294.316 51.5713V20.458H299.59V51.5713H294.316Z" fill="#133079"/>
<line y1="79.5713" x2="1900" y2="79.5713" stroke="#133079" stroke-width="2"/>
</svg>
