<svg width="123" height="99" viewBox="0 0 123 99" fill="none" xmlns="http://www.w3.org/2000/svg">
<path d="M35.5141 89.8924H37.3802V78.7686C37.3802 78.4366 37.4183 78.1199 37.4794 77.8146C37.5404 77.5017 37.6244 77.2231 37.7198 76.975C37.9221 76.4599 38.1968 75.96 38.5517 75.4639C38.9066 74.9602 39.3264 74.5099 39.8148 74.1054C40.3033 73.6932 40.849 73.3689 41.4443 73.1208C42.0472 72.8804 42.6959 72.7507 43.3943 72.7469C44.4284 72.7507 45.3176 73.0063 46.0693 73.5101C46.8249 74.0138 47.4011 74.7159 47.8094 75.6127C48.2178 76.5133 48.42 77.5703 48.4238 78.7686V89.8924H50.2899V78.2343C50.2937 77.8909 50.3318 77.5665 50.412 77.2689C50.4883 76.9636 50.5723 76.6926 50.6715 76.4446C50.8737 75.9752 51.1408 75.5173 51.4843 75.0785C51.8201 74.6396 52.2208 74.2466 52.6825 73.8993C53.1405 73.5444 53.648 73.2697 54.209 73.0598C54.7699 72.8575 55.3652 72.7545 56.0063 72.7469C57.1282 72.7469 58.0899 73.0063 58.8836 73.5291C59.6774 74.0519 60.2803 74.8304 60.7077 75.8646C61.1274 76.8949 61.3411 78.1809 61.3411 79.7188V89.8886H63.2072V79.6768C63.2034 78.4137 63.0813 77.3223 62.837 76.4026C62.6004 75.483 62.2837 74.7045 61.8907 74.0787C61.49 73.449 61.0511 72.9415 60.5703 72.5522C60.0933 72.163 59.6048 71.8653 59.1164 71.6631C58.6203 71.4608 58.1624 71.3197 57.7312 71.2433C57.3038 71.1708 56.9451 71.1365 56.6512 71.1441C55.8956 71.1441 55.224 71.2166 54.6363 71.354C54.0525 71.4952 53.5182 71.6974 53.0336 71.9646C52.5566 72.2317 52.0949 72.5561 51.656 72.9377C51.3126 73.2429 50.9768 73.6055 50.6448 74.029C50.3204 74.4488 50.0227 74.9373 49.748 75.4906H49.6717C49.4045 74.7045 49 73.9871 48.4734 73.3307C47.9392 72.6782 47.2866 72.1515 46.5234 71.7585C45.7564 71.3654 44.8825 71.1632 43.9209 71.1479C42.8104 71.1517 41.845 71.3311 41.0207 71.6745C40.1964 72.0256 39.4866 72.495 38.8875 73.0979C38.2922 73.6932 37.7694 74.3801 37.3306 75.151H37.2542L37.1016 71.6059H35.3462C35.4035 72.35 35.4416 73.0865 35.4683 73.8153C35.4874 74.5442 35.5027 75.2807 35.5027 76.0248V89.8924V89.8809L35.5141 89.8924ZM69.6945 97.513H71.5605V86.6182H71.6368C72.152 87.4692 72.7855 88.1675 73.5372 88.7208C74.2852 89.2742 75.1095 89.6863 76.0139 89.9534C76.9144 90.2205 77.8417 90.3541 78.7996 90.3541C80.0551 90.3541 81.2457 90.1328 82.3485 89.6939C83.459 89.2551 84.4435 88.614 85.3021 87.763C86.1531 86.912 86.8247 85.8702 87.317 84.6338C87.8093 83.3974 88.0535 81.9741 88.0611 80.3713C88.0573 79.1197 87.8512 77.9443 87.4391 76.8415C87.0308 75.7386 86.4431 74.7579 85.6723 73.9031C84.9053 73.0521 83.9856 72.3881 82.9056 71.8959C81.8181 71.4074 80.6084 71.1594 79.2613 71.1517C77.9906 71.1556 76.8687 71.3425 75.8765 71.7127C74.8919 72.0752 74.041 72.5751 73.3235 73.2124C72.6061 73.8535 72.0185 74.59 71.5643 75.4219H71.488L71.3354 71.6097H69.5457C69.6029 72.6018 69.6411 73.5864 69.6678 74.5633C69.6868 75.5402 69.7021 76.5247 69.7021 77.5169V97.5168L69.6945 97.513ZM71.5605 79.299C71.5643 79.0433 71.6025 78.7762 71.675 78.4976C71.7475 78.2191 71.82 77.9519 71.904 77.6963C72.1635 76.8644 72.5336 76.1431 73.003 75.5097C73.4724 74.88 74.0257 74.361 74.6477 73.9375C75.2697 73.5177 75.9414 73.201 76.6626 72.9834C77.3876 72.7736 78.1241 72.6667 78.8797 72.6667C80.0207 72.6705 81.051 72.8842 81.9516 73.2964C82.8522 73.7085 83.6192 74.2733 84.2489 74.9983C84.8824 75.7157 85.3594 76.5438 85.6914 77.4749C86.0272 78.4022 86.1951 79.3944 86.1951 80.44C86.1913 82.1458 85.8822 83.634 85.2754 84.8857C84.6648 86.1374 83.8024 87.1028 82.6729 87.7821C81.5509 88.469 80.2077 88.8162 78.6546 88.8239C77.796 88.8201 76.9908 88.6903 76.2352 88.4308C75.4872 88.1751 74.8118 87.8279 74.2089 87.3776C73.5983 86.9311 73.0908 86.4198 72.671 85.8321C72.2589 85.2559 71.9459 84.6377 71.7551 83.9851C71.6979 83.7562 71.6559 83.5196 71.614 83.2753C71.5796 83.0349 71.5605 82.7869 71.5605 82.5388V79.3028V79.299ZM93.0525 89.8924H94.9186V79.9859C94.9186 79.673 94.9376 79.3715 94.972 79.0586C95.0101 78.7533 95.0521 78.4633 95.1132 78.1962C95.3231 77.1353 95.6665 76.2118 96.1435 75.4143C96.6205 74.6282 97.2044 74.01 97.8989 73.5673C98.5896 73.1285 99.3643 72.9071 100.223 72.8995C100.425 72.8995 100.616 72.8995 100.784 72.9033C100.956 72.9186 101.12 72.9377 101.291 72.9758V71.2586C101.158 71.2204 101.017 71.1861 100.864 71.1708C100.719 71.1517 100.566 71.1479 100.414 71.1479C99.5131 71.1517 98.6926 71.3464 97.9638 71.728C97.2349 72.1096 96.6053 72.6286 96.071 73.2925C95.5368 73.9527 95.117 74.7159 94.8155 75.5707H94.7011L94.6247 71.6097H92.9075C92.9647 72.6018 93.0029 73.5864 93.0296 74.5633C93.0487 75.5402 93.064 76.5247 93.064 77.5169V89.9L93.0525 89.8924ZM112.675 90.3503C113.575 90.3503 114.487 90.2282 115.403 89.9878C116.323 89.7397 117.208 89.3658 118.044 88.8659C118.887 88.3621 119.635 87.7248 120.299 86.9426C120.967 86.1679 121.486 85.2444 121.871 84.1797C122.261 83.1151 122.455 81.8939 122.463 80.5201C122.459 79.2074 122.234 77.9863 121.795 76.8567C121.349 75.7196 120.715 74.7274 119.883 73.8802C119.044 73.0216 118.04 72.3538 116.868 71.8806C115.693 71.4036 114.373 71.1556 112.9 71.1517C111.61 71.1556 110.393 71.3807 109.236 71.8234C108.076 72.2698 107.046 72.9148 106.149 73.7619C105.249 74.6053 104.539 75.6356 104.016 76.8415C103.493 78.0473 103.234 79.4135 103.222 80.9437C103.226 82.3022 103.463 83.5539 103.928 84.6987C104.394 85.8397 105.046 86.8319 105.886 87.6752C106.729 88.5262 107.721 89.1788 108.862 89.6443C110.011 90.1137 111.27 90.3503 112.636 90.3541H112.678L112.675 90.3503ZM112.713 88.8277C111.721 88.8277 110.774 88.6483 109.87 88.2934C108.962 87.9424 108.149 87.4234 107.431 86.7441C106.714 86.0572 106.149 85.2215 105.733 84.2293C105.313 83.2372 105.1 82.1 105.092 80.8254C105.092 79.7531 105.256 78.7228 105.581 77.7535C105.913 76.7766 106.401 75.9104 107.054 75.151C107.706 74.3916 108.519 73.7848 109.5 73.346C110.473 72.9071 111.61 72.6782 112.904 72.6743C113.976 72.6782 114.93 72.8461 115.766 73.1704C116.605 73.4948 117.323 73.926 117.933 74.4793C118.544 75.0327 119.044 75.6471 119.437 76.3416C119.83 77.0285 120.124 77.7382 120.314 78.4824C120.505 79.2189 120.601 79.9439 120.601 80.6423C120.597 81.955 120.372 83.1265 119.94 84.1416C119.513 85.1566 118.929 86.0153 118.196 86.7136C117.452 87.4043 116.624 87.9309 115.689 88.2973C114.751 88.6521 113.777 88.8391 112.755 88.8391H112.717L112.713 88.8277ZM31.8965 71.602C31.8965 71.602 31.8965 71.602 31.8965 71.6059L31.8851 71.6287L25.4169 86.3892C24.7948 87.8317 24.211 89.1063 23.6729 90.2129C23.131 91.3158 22.6082 92.285 22.1007 93.1017C21.5855 93.9259 21.0666 94.6395 20.5361 95.2425C20.0019 95.8378 19.4333 96.3606 18.8304 96.7918C18.3037 97.1734 17.8153 97.4787 17.3497 97.7076C16.8918 97.9442 16.4987 98.1159 16.1706 98.2304C15.8386 98.3449 15.6096 98.4098 15.4799 98.4327L14.9838 96.8681C15.2967 96.7765 15.6325 96.6582 16.0065 96.5056C16.3805 96.3529 16.7621 96.1545 17.1627 95.9217C17.5634 95.6889 17.9565 95.4066 18.3381 95.0784C18.6624 94.8113 19.0173 94.464 19.418 94.0251C19.8111 93.5863 20.2194 93.0482 20.6353 92.4148C21.0551 91.7813 21.4558 91.0295 21.8412 90.1671C21.9175 89.9954 21.9748 89.8504 22.0129 89.7359C22.0511 89.6176 22.0702 89.5184 22.0702 89.4421C22.0702 89.3657 22.0511 89.2589 22.0091 89.1253C21.971 88.9841 21.9023 88.8124 21.8069 88.6025L14.2244 71.6097H16.2431L21.6924 83.8401C21.8717 84.2408 22.0549 84.6606 22.2381 85.1108C22.4213 85.5573 22.593 86 22.7609 86.4427C22.925 86.8891 23.0662 87.3013 23.1807 87.6867H23.257C23.4669 87.1143 23.6958 86.4885 23.9477 85.813C24.1957 85.1414 24.4743 84.4278 24.7796 83.6836L29.8816 71.6135L31.9041 71.6097L31.8965 71.602ZM0.131714 89.0643C0.826235 89.4726 1.60853 89.797 2.47095 90.0297C3.34101 90.2702 4.2645 90.3923 5.2414 90.3999C6.63426 90.3846 7.81342 90.1595 8.80178 89.6939C9.77869 89.236 10.5304 88.614 11.0532 87.8241C11.576 87.0303 11.8355 86.1412 11.8394 85.1376C11.8394 84.2293 11.6562 83.4471 11.2937 82.7869C10.9235 82.1305 10.374 81.5619 9.63368 81.0811C8.88955 80.5965 7.96225 80.1729 6.84414 79.7989C5.94356 79.5013 5.16508 79.196 4.53162 78.8716C3.89434 78.5472 3.4097 78.1656 3.08534 77.7153C2.74952 77.2651 2.5778 76.7041 2.5778 76.0248C2.5778 75.4334 2.72281 74.8877 3.01665 74.3916C3.31048 73.9031 3.7417 73.5024 4.3141 73.2048C4.88651 72.9071 5.59248 72.7545 6.43201 72.7469C7.13035 72.7507 7.74855 72.8232 8.27516 72.9567C8.80941 73.0979 9.25207 73.2544 9.62223 73.4337C9.98475 73.6169 10.271 73.7848 10.4732 73.9298L11.1983 72.4034C10.6564 72.0333 10.0115 71.7432 9.2597 71.5219C8.50413 71.3044 7.67604 71.1899 6.77164 71.1861C5.77947 71.1899 4.90941 71.3349 4.16146 71.6135C3.40588 71.8921 2.78005 72.2737 2.27252 72.7507C1.76498 73.2277 1.39101 73.7657 1.1277 74.3725C0.872027 74.9754 0.746098 75.6051 0.746098 76.2614C0.746098 77.3528 1.15823 78.3145 1.97868 79.1502C2.80295 79.9897 4.04316 80.6766 5.70315 81.2147C6.65716 81.5123 7.4509 81.8443 8.09199 82.2068C8.72927 82.5694 9.2101 82.9929 9.53064 83.489C9.85501 83.9851 10.0153 84.5881 10.0153 85.294C10.0153 85.9237 9.85501 86.5075 9.53064 87.0418C9.20628 87.576 8.69874 88.0072 8.01567 88.3392C7.33642 88.6636 6.46254 88.8353 5.39405 88.843C4.78348 88.8391 4.19962 88.7704 3.63866 88.6369C3.0777 88.5033 2.56635 88.3392 2.08553 88.1293C1.60852 87.9195 1.18494 87.702 0.814787 87.4692L0.131714 89.0605V89.0643Z" fill="#24366F"/>
<path d="M59.6542 57.9947C59.5804 59.9392 59.4727 61.8731 59.3312 63.7992C59.2831 63.8135 59.2382 63.8307 59.1903 63.848C56.0669 62.3435 52.8502 61.0044 49.553 59.8422C45.8478 58.5334 42.0397 57.4482 38.1477 56.6039C39.1055 54.414 40.0134 52.199 40.8716 49.9587C41.7572 47.6502 42.5899 45.3137 43.3699 42.9551C47.8532 29.39 50.5559 15.0412 51.2137 0.200014C54.5846 10.0646 57.0195 20.3776 58.4106 31.0403C57.2879 36.5083 55.8809 41.8762 54.2073 47.1309C53.4658 49.4635 52.6715 51.774 51.8244 54.0595C54.5022 55.2516 57.1154 56.5683 59.6572 57.9945L59.6542 57.9947Z" fill="#24366F"/>
<path d="M65.3139 53.5099C66.0589 53.9888 66.7952 54.4771 67.5259 54.9779C67.4789 57.0491 67.3951 59.1127 67.2711 61.1629C67.208 61.1809 67.1481 61.2017 67.0851 61.2227C65.647 60.2688 64.1801 59.3528 62.6876 58.4773C62.1411 58.1542 61.5887 57.8374 61.0336 57.5268C58.4917 56.1005 55.8786 54.7838 53.2008 53.5917C54.0479 51.3062 54.8421 48.9957 55.5837 46.6631C57.2573 41.4084 58.6643 36.0406 59.787 30.5725C61.0709 24.3336 61.9903 17.9676 62.5187 11.4968C64.6935 19.9559 66.1988 28.6935 66.9653 37.6549C66.4219 40.0671 65.8198 42.4576 65.162 44.8261C64.4856 47.2593 63.7533 49.6646 62.9622 52.048C63.7527 52.5249 64.5376 53.0111 65.3139 53.5099Z" fill="#106FAE"/>
<path d="M74.3423 44.2022C74.552 49.0313 74.5377 53.8153 74.3052 58.5509C74.2419 58.5659 74.1758 58.5839 74.1097 58.6051C72.3953 57.2433 70.6347 55.9413 68.8253 54.7054C68.0946 54.2046 67.3583 53.7163 66.6133 53.2374C65.837 52.7386 65.0522 52.2524 64.2616 51.7755C65.0527 49.3921 65.785 46.9869 66.4614 44.5536C67.1192 42.1851 67.7214 39.7947 68.2647 37.3824C69.6086 31.4726 70.6034 25.4411 71.2345 19.3036C72.9178 27.3762 73.9729 35.6952 74.3423 44.2022Z" fill="#13A7DD"/>
</svg>
